<?xml version="1.0" encoding="UTF-8"?>
<svg id="Ebene_1" xmlns="http://www.w3.org/2000/svg" version="1.1" viewBox="0 0 64 64">
  <!-- Generator: Adobe Illustrator 29.4.0, SVG Export Plug-In . SVG Version: 2.1.0 Build 152)  -->
  <defs>
    <style>
      .st0 {
        fill: #1d1d1b;
        fill-rule: evenodd;
      }
    </style>
  </defs>
  <path class="st0" d="M32,0C14.3,0,0,14.3,0,32s14.3,32,32,32,32-14.3,32-32S49.7,0,32,0ZM14.3,49.7v-7.8h3c5.5,0,9.9-4.5,9.9-9.9s-4.5-9.9-9.9-9.9h-3v-7.8h3c9.8,0,17.7,7.9,17.7,17.7s-7.9,17.7-17.7,17.7h-3ZM47.8,47.2c-1.9,1.6-4.4,2.5-6.9,2.5h-12.5c3.1-1.9,5.6-4.6,7.3-7.8h5.2c1.7,0,3-1.4,3-3s-1.4-3-3-3h-3c.5-2.6.5-5.2,0-7.8h3c1.7,0,3-1.4,3-3s-1.4-3-3-3h-5.2c-1.7-3.2-4.2-5.9-7.3-7.8h12.5c6,0,10.8,4.8,10.8,10.8,0,2.5-.9,5-2.5,6.9,3.8,4.6,3.2,11.4-1.4,15.2Z"/>
</svg>