<svg version="1.1" id="Ebene_1" xmlns="http://www.w3.org/2000/svg" xmlns:xlink="http://www.w3.org/1999/xlink" x="0px" y="0px"
	 viewBox="0 0 64 64" style="enable-background:new 0 0 64 64;" xml:space="preserve">
	<path d="M29.8,32.5c-0.4,0.4-1,1.4-1.3,2.3c-0.6,1.7-0.3,3.5,0.1,3.6c0.4,0.1,1.2-2.2,1.6-3.1c0.3-0.6,1.2-3.1,1-3.4
		C31,31.6,30.4,31.9,29.8,32.5z"/>
	<path d="M32,0C14.3,0,0,14.3,0,32s14.3,32,32,32s32-14.3,32-32S49.7,0,32,0z M50.6,39c-0.1,0.1-0.2,0.1-0.3-0.1
		c0-0.1,0.1-0.1,0.3-0.3c0.2-0.1,0.9-0.6,1-1.4c0.2-0.8-0.5-2.8-3.7-3.2c-1.5-0.2-2.7,0-3.6,0.4c0.1,0.5,0.3,1,0.3,1.4
		c0,0.9-0.7,1.7-1.4,2.2c-0.5,0.3-0.9,0.4-1.3,0.6c-0.3,0.1-0.7,0.3-1,0.2c-0.6-0.1-0.9-0.7-0.5-1.9c0.2-0.7,1-1.7,2-2.6
		c-0.3-0.5-0.5-1-0.7-1.5c-0.2-0.9-0.3-1.5-0.3-1.5s-0.8,1.8-2,3.5c0,0.1-0.1,0.2-0.2,0.3c0.2,0.5,0.4,1.1,0.4,1.6
		c0.1,1-0.4,1.8-1.1,2.3c-0.4,0.3-0.9,0.4-1.2,0.6c-0.3,0.1-0.7,0.2-1.4,0.3c-0.4,0-0.7,0-0.9-0.2c-0.3-0.2-0.4-0.5-0.2-0.8
		s1.1-1.3,1.8-2.2c0.2-0.2,0.4-0.5,0.6-0.7c0,0,0.1-0.2,0.3-0.5c-0.3-0.6-0.6-1.3-0.8-1.8c-0.2-0.9-0.3-1.5-0.3-1.5
		s-0.9,2.4-1.8,4.2c-0.7,1.3-1.2,2.2-1.4,2.6c0,0,0,0.1-0.1,0.2C33,39.3,33,39.3,33,39.3c-0.3,0.3-0.8,1-1.3,1c-1.4,0-0.9-3-0.9-3
		s-0.4,1.1-0.9,2.1c-0.3,0.7-0.7,1.4-1.5,1.4c-0.2,0-0.6,0-0.9-0.3c-0.7-0.7-1.2-2.3-1.1-3.6c0.1-1.1,0.3-1.9,0.5-2.5
		c-0.4,0.3-0.9,0.5-1.4,0.8c-0.2,0.1-0.5,0.2-0.7,0.4v0.1c0.6,1.2,0.8,3.8-0.6,5.8c-1.3,2-3.8,3.2-6.2,2.5c-0.7-0.2-1.9-1.9-0.9-4.1
		c0.9-2,4.5-3.8,5.4-4.3c0-0.1,0.1-0.1,0.2-0.2c-1.8-1.6-6.5-3.8-7.2-7.2c-0.2-1,0.3-3.3,3.1-5.9c2.4-2.3,5.6-4,8.7-5
		c5.1-1.8,10.5-0.7,11.3,2.5c0.8,3.2-1.9,7-5.5,8.4c-3.2,1.2-5.9,1-6.9,0.7c-1.2-0.4-1.9-1.3-2.1-1.7c-0.1-0.2-0.2-0.5,0-0.6
		c0.2,0,0.2,0,0.5,0.3c0.2,0.3,1.5,1.1,3.7,0.9c5.9-0.7,9.4-5.2,8.3-7.7c-0.8-1.7-5.4-2.5-11,0.3c-6.9,3.4-7.2,6.3-7.3,7.3
		c-0.2,2.9,3.6,4.5,5.7,6.7c0,0,0,0,0.1,0.1c0.4-0.3,0.8-0.5,1.2-0.7c1.1-0.6,2.1-1.2,2.5-1.4c0.7-1,2.3-2.2,3.3-2.2
		c1.7,0,1.1,2.5,1.1,2.5s0-0.1,0.1-0.1c0.1,0,0.3-0.4,0.8-0.2c0.5,0.2,0.4,0.6,0.4,0.6s-0.6,2.2-0.9,3.6c-0.1,0.7,0,1.2,0,1.2
		s0.1-0.1,0.2-0.3c0,0,0-0.2,0.2-0.4c0.1-0.1,0.1-0.1,0.1-0.1c0.2-0.3,0.4-0.8,0.6-1.3c0.4-1.1,2.2-5.1,2.4-5.5
		c0.1-0.4,0.2-0.9,0.3-1.1c0-0.1,0.7-0.3,1.4-0.3c0.7,0,0.8,0.3,0.8,0.4c0,0.1-0.3,1-0.4,1.6c-0.1,0.6,0,0.9,0.1,1.4
		c0,0.4,0.3,0.8,0.5,1.3c0.7-1.2,2-3.6,2.2-4.3c0.1-0.5,0.2-0.9,0.3-1.1c0-0.1,0.7-0.3,1.4-0.3s0.8,0.3,0.8,0.4c0,0.1-0.3,1-0.4,1.6
		c-0.1,0.6,0,0.9,0.1,1.4c0.1,0.5,0.5,1.1,0.8,1.8c0.9-0.5,2-0.8,3.3-0.8c3.3,0,5.2,2.2,5.1,4.6C52.3,38.3,50.8,38.9,50.6,39z"/>
	<path d="M36.4,38.3c0,0-0.2,0.1-0.1,0.2c0.1,0.1,0.2,0,0.4-0.1c0.4-0.3,1.4-1,1.4-2.1c0,0,0,0,0-0.1
		c-0.2,0.3-0.4,0.6-0.6,0.8C37.2,37.4,36.4,38.3,36.4,38.3z"/>
	<path d="M23.5,36C23.5,36,23.5,36,23.5,36c-0.4,0.3-0.6,0.4-0.8,0.5C22,37,21,37.6,20.2,38.4c-1.3,1.2-1.6,2.9-0.9,3.3
		c0.6,0.4,2.2,0,3.2-1.2c1.2-1.2,1.6-2.7,1.2-4.6C23.6,35.9,23.6,35.9,23.5,36z"/>
	<path d="M41.9,36.1c-0.4,0.9-0.4,1.1-0.3,1.2c0.6-0.3,1.5-0.8,1.5-2c0-0.2,0-0.4-0.1-0.6
		C42.4,35.2,42.1,35.8,41.9,36.1z"/>
</svg>
