<?xml version="1.0" encoding="UTF-8"?>
<svg id="Ebene_1" xmlns="http://www.w3.org/2000/svg" version="1.1" viewBox="0 0 64 64">
  <!-- Generator: Adobe Illustrator 29.4.0, SVG Export Plug-In . SVG Version: 2.1.0 Build 152)  -->
  <defs>
    <style>
      .st0 {
        fill: #1d1d1b;
        fill-rule: evenodd;
      }
    </style>
  </defs>
  <path class="st0" d="M32,0C14.3,0,0,14.3,0,32s14.3,32,32,32,32-14.3,32-32S49.7,0,32,0ZM48.7,39.4l-11.7,9.8c-2.7,2.3-7.1,2.3-9.8,0l-11.9-9.9c-1.8-1.5-2.4-3.7-1.8-5.7.3.9.9,1.8,1.8,2.5l11.9,9.9c2.7,2.2,7.1,2.2,9.8,0l11.7-9.8c.9-.7,1.4-1.6,1.8-2.5.7,1.9,0,4.1-1.8,5.6ZM48.7,32.8l-11.7,9.8c-2.7,2.3-7.1,2.3-9.8,0l-11.9-9.9c-2.7-2.2-2.7-5.9,0-8.2l11.7-9.8c2.7-2.3,7.1-2.3,9.8,0l11.9,9.9c2.7,2.2,2.7,5.9,0,8.2Z"/>
</svg>