<?xml version="1.0" encoding="UTF-8"?>
<svg id="Ebene_1" xmlns="http://www.w3.org/2000/svg" version="1.1" viewBox="0 0 64 64">
  <!-- Generator: Adobe Illustrator 29.4.0, SVG Export Plug-In . SVG Version: 2.1.0 Build 152)  -->
  <defs>
    <style>
      .st0 {
        fill: #e6007e;
        fill-rule: evenodd;
      }
    </style>
  </defs>
  <path class="st0" d="M32,0C14.3,0,0,14.3,0,32s14.3,32,32,32,32-14.3,32-32S49.7,0,32,0ZM21.2,40.4h-6c-.4,0-.6-.2-.8-.4-.2-.3-.2-.6,0-.9l6.4-11.3h0s-4.1-7.1-4.1-7.1c-.2-.3-.2-.7,0-.9.1-.3.4-.4.8-.4h6c.9,0,1.4.6,1.7,1.1,0,0,4.1,7.2,4.2,7.2-.2.4-6.5,11.5-6.5,11.5-.3.6-.7,1.2-1.6,1.2ZM49.6,12.4l-13.3,23.6h0s8.5,15.6,8.5,15.6c.2.3.2.7,0,.9-.1.3-.4.4-.8.4h-6c-.9,0-1.4-.6-1.7-1.1,0,0-8.5-15.7-8.6-15.7.4-.7,13.4-23.8,13.4-23.8.3-.6.7-1.2,1.6-1.2h6.1c.3,0,.6.1.7.4.2.3.2.6,0,.9Z"/>
</svg>