<?xml version="1.0" encoding="UTF-8"?>
<svg id="Ebene_1" xmlns="http://www.w3.org/2000/svg" version="1.1" viewBox="0 0 64 64">
  <!-- Generator: Adobe Illustrator 30.2.1, SVG Export Plug-In . SVG Version: 2.1.1 Build 1)  -->
  <defs>
    <style>
      .st0 {
        fill: #e6007e;
      }
    </style>
  </defs>
  <polygon class="st0" points="50.9 41.9 50.9 27.9 41.5 33.8 50.9 41.9"/>
  <path class="st0" d="M63.7,29.9C62.7,14,49.8,1.1,33.8,0,14.5-1.1-1.4,14.7-.2,34.1c1,15.9,13.9,28.9,29.9,29.9,19.3,1.2,35.2-14.7,34-34ZM53.9,45.1s0,0,0,0c0,0,0,0,0,0,0,.1,0,.2,0,.4,0,0,0,0,0,0,0,0,0,0,0,0,0,.1-.1.2-.2.4,0,0,0,0,0,0,0,0-.2.2-.3.3,0,0,0,0,0,0-.1,0-.2.1-.4.2,0,0,0,0,0,0-.1,0-.3,0-.4,0H11.1c-.1,0-.3,0-.4,0,0,0,0,0,0,0-.1,0-.2-.1-.4-.2,0,0,0,0,0,0-.1,0-.2-.2-.3-.3,0,0,0,0,0,0,0-.1-.1-.2-.2-.3,0,0,0,0,0,0,0,0,0,0,0,0,0-.1,0-.2,0-.3,0,0,0,0,0,0,0,0,0,0,0,0v-24.3c0-.8.7-1.5,1.5-1.5h41.3c.8,0,1.5.7,1.5,1.5v24.3Z"/>
  <path class="st0" d="M32.6,39.3c-.2.1-.5.2-.8.2s-.5,0-.8-.2l-6.3-3.9-9.6,8.2h33.2l-9.5-8.2-6.2,3.8Z"/>
  <polygon class="st0" points="12.6 27.9 12.6 41.9 22.1 33.7 12.6 27.9"/>
  <path class="st0" d="M49.5,22.3H14c-.7,0-1.3.6-1.3,1.3s.2.9.6,1.1l18,11.1c.3.2.7.2,1.1,0l17.9-11.1c.4-.2.6-.7.6-1.2,0-.8-.6-1.4-1.4-1.4Z"/>
</svg>