<?xml version="1.0" encoding="UTF-8"?>
<svg id="Ebene_1" xmlns="http://www.w3.org/2000/svg" version="1.1" viewBox="0 0 64 64">
  <!-- Generator: Adobe Illustrator 29.4.0, SVG Export Plug-In . SVG Version: 2.1.0 Build 152)  -->
  <defs>
    <style>
      .st0 {
        fill: #1d1d1b;
        fill-rule: evenodd;
      }
    </style>
  </defs>
  <path class="st0" d="M38.6,36.6c.3-.4.6-.9.8-1.3,1.4-2.4,1.6-4.4.7-5.6-1.1-1.4-3.8-1.3-7,0-1.5-3.2-3.4-5-5.2-4.8-1.5.2-2.6,1.9-3.2,4.6-.1.5-.2,1-.2,1.5-3.4-.3-6,.4-6.6,2.1-.7,1.7.8,4,3.5,6.1-2,2.9-2.6,5.5-1.5,6.9.3.4.7.6,1.1.8,1.1.4,2.6.3,4.4-.3.5-.1.9-.3,1.4-.5.2.5.5.9.7,1.4,1,1.7,2,2.8,3.1,3.2.5.2.9.2,1.3.2,1.8-.3,3-2.7,3.4-6.1,3.4.3,6-.4,6.7-2.1.7-1.7-.8-4-3.5-6.1ZM33.4,33.6c-.5-.2-.9-.4-1.4-.6-.5-.2-1-.4-1.4-.5.7-.4,1.4-.8,2.1-1.2.3.7.5,1.5.8,2.3ZM33.7,35c.2.8.3,1.5.5,2.3.1.8.2,1.6.3,2.3,0,0,0,0,0,0-.1.1-.3.3-.4.4h0c-.1.1-.2.2-.3.3,0,0,0,0-.1,0-.3.3-.6.5-.9.8-.2.1-.3.3-.5.4,0,0-.1.1-.2.2,0,0-.2.1-.3.2-.1.1-.3.2-.4.3,0,0,0,0,0,0-.1,0-.2.2-.3.2,0,0,0,0-.1,0-.3,0-.6-.2-.9-.3-.4-.1-.9-.3-1.3-.5-.8-.3-1.5-.6-2.2-.9-.2-.8-.3-1.5-.5-2.3-.1-.8-.2-1.6-.3-2.3h0c.1-.2.3-.3.4-.4h0c.1-.1.2-.2.3-.3,0,0,0,0,.1,0,.3-.3.6-.5.9-.8.2-.1.3-.3.5-.4,0,0,.1-.1.2-.2,0,0,.2-.1.3-.2.1-.1.3-.2.4-.3,0,0,0,0,0,0,.1,0,.2-.2.3-.2,0,0,0,0,.1,0,.3,0,.6.2.9.3.4.1.9.3,1.3.5.8.3,1.5.6,2.2.9ZM25.9,29.9c.5-2.2,1.3-3.6,2.3-3.7.2,0,.5,0,.8,0,1,.4,2.2,1.8,3.2,4-1,.5-2,1.1-3,1.8-1.2-.3-2.4-.6-3.4-.7,0-.5.1-1,.2-1.4ZM25.6,32.4c.7.1,1.5.3,2.3.5-.4.3-.8.6-1.2.9-.4.3-.8.7-1.1,1,0-.8,0-1.6,0-2.4ZM24.6,37.3c0,.5.1,1,.2,1.5,0,.5.2,1,.3,1.5-.7-.4-1.4-.8-2-1.2.5-.6,1-1.2,1.6-1.8ZM19,33.7c.4-1.1,2.5-1.7,5.5-1.4,0,1.1,0,2.3,0,3.5-.9.9-1.7,1.8-2.4,2.6-2.4-1.8-3.6-3.6-3.2-4.8ZM25.2,45.7c-2.1.7-3.7.7-4.3-.1-.7-.9-.2-3,1.5-5.5.9.6,1.9,1.2,3,1.8.3,1.2.7,2.3,1.1,3.4-.5.2-.9.4-1.3.5ZM27.5,44.7c-.3-.7-.5-1.5-.8-2.3.5.2.9.4,1.4.6.5.2,1,.4,1.4.5-.7.4-1.4.8-2.1,1.2ZM31.9,49.8c-1,.2-2.2-.9-3.3-2.8-.2-.4-.4-.8-.6-1.3,1-.5,2-1.1,3-1.8,1.2.3,2.3.6,3.4.7-.4,3-1.3,4.9-2.5,5.1ZM34.5,43.6c-.7-.1-1.5-.3-2.3-.5.4-.3.8-.6,1.2-.9.4-.3.8-.7,1.2-1,0,.8,0,1.6,0,2.4ZM33.6,30.8c2.2-.9,4-1.2,5-.8.3.1.5.2.6.4.6.8.4,2.4-.8,4.3-.2.4-.5.8-.8,1.2-.9-.6-1.9-1.2-3-1.8-.3-1.2-.7-2.3-1.1-3.4ZM35.5,38.7c0-.5-.1-1-.2-1.5,0-.5-.2-1-.3-1.5.7.4,1.4.8,2,1.2-.5.6-1,1.2-1.6,1.8ZM41.1,42.3c-.4,1.1-2.5,1.7-5.5,1.4,0-1.1,0-2.3,0-3.5.9-.9,1.7-1.7,2.4-2.6,2.4,1.8,3.6,3.6,3.2,4.7Z"/>
  <path class="st0" d="M32,0C14.3,0,0,14.3,0,32s14.3,32,32,32,32-14.3,32-32S49.7,0,32,0ZM46,37.3c-1.4,14-7.8,24.7-23,17.5-14.7-2.9-11.1-17.9-6.4-26.4,5.4-9.4,16.3-16,22.7-19.5.7-.4,1.2-.6,1.8-.9.5-.3.7-.1.9.2.3.6.5,1.2.7,1.9,2.7,7.6,4.2,18.1,3.3,27.2Z"/>
  <path class="st0" d="M27.9,37.2c-.5,1.2.1,2.6,1.3,3,1.2.5,2.5-.1,3-1.3s-.1-2.6-1.3-3c-1.2-.5-2.5.1-3,1.3Z"/>
</svg>