<?xml version="1.0" encoding="UTF-8"?>
<svg id="Ebene_1" xmlns="http://www.w3.org/2000/svg" version="1.1" viewBox="0 0 64 64">
  <!-- Generator: Adobe Illustrator 29.4.0, SVG Export Plug-In . SVG Version: 2.1.0 Build 152)  -->
  <defs>
    <style>
      .st0 {
        fill: #1d1d1b;
        fill-rule: evenodd;
      }
    </style>
  </defs>
  <path class="st0" d="M32,0C14.3,0,0,14.3,0,32s14.3,32,32,32,32-14.3,32-32S49.7,0,32,0ZM48.9,23.2c-3.3-6.3-9.8-10.3-17-10.3s-4.9.5-7.1,1.4c-7.2,2.9-12,10-12,17.7s.2,3.1.6,4.5c2.1,8.4,9.8,14.5,18.6,14.5.3,0,.5,0,.8,0,.4,0,.7-.3.9-.6l.8-1.8h0s3.8-9.1,3.8-9.1l-6.1-14.8h3.5l4.3,10.9,4.3-10.9h3.3l-10.1,24.5h0s-.3.8-.3.8l-.2.6h0s-.4,1-.4,1c-.6,1.5-2,2.5-3.6,2.5-.3,0-.6,0-.9,0h0c-5.1,0-10-1.8-13.9-4.9-3.6-2.9-6.2-6.9-7.4-11.4h0c0-.2,0-.4-.1-.6,0-.1,0-.3-.1-.4h0c-.4-1.6-.6-3.2-.6-4.9,0-8.9,5.5-17.1,13.7-20.5h0c0,0,.2,0,.2,0,0,0,.2,0,.3-.1h0c2.6-1,5.2-1.5,8-1.5,8.3,0,15.9,4.6,19.7,12l-2.7,1.4ZM22.2,35.3c.8.9,1.9,1.3,3.1,1.3,1.8,0,3.3-1,4-2.6h0c0-.1,3,.9,3,.9v.2c-1.2,2.8-3.9,4.6-7.1,4.6s-4-.7-5.5-2.2c-1.5-1.5-2.2-3.3-2.2-5.4s.8-4,2.2-5.4c1.5-1.5,3.3-2.2,5.5-2.2,3.2,0,5.8,1.8,7,4.6v.2c0,0-2.9,1-2.9,1h0c-.8-1.8-2.2-2.8-4-2.8s-2.3.4-3.1,1.3c-.9.9-1.3,2-1.3,3.3s.4,2.4,1.3,3.3Z"/>
</svg>