<svg xmlns="http://www.w3.org/2000/svg" version="1.1" viewBox="0 0 250 250">
  <path d="M224.3,196c-3.4,0-5.9-1-7.9-2.7-2.1-1.7-3-4.5-3-7.9s1-6.2,3-8.1c1.8-1.7,4.6-2.7,7.9-2.7s5.9,1,7.7,2.7c1,.8,1.6,1.8,2.1,3.2,8.8-17.1,13.9-36.5,13.9-57C248,55.3,192.7,0,124.6,0S1.1,55.3,1.1,123.4s55.3,123.4,123.4,123.4c41.2.1,77.5-20,99.8-50.8.1,0,0,0,0,0ZM158.2,194.6h-19.5v-34.8c0-4.5-.4-7.6-1.4-9.7-1-2.1-2.4-3-4.2-3-2.8,0-4.8,1.4-5.9,4.2-1.1,2.8-1.6,7.3-1.6,13.3v29.9h-19.6v-34.8c0-8.6-1.8-12.8-5.5-12.8s-4.9,1.6-5.9,4.8c-1.1,3.2-1.6,8.1-1.6,14.7v28h-19.6v-63h15l2.4,7.7h1c1.3-2.8,3.4-5.1,6.2-6.5,2.8-1.6,6.2-2.4,10.1-2.4s7.3.8,9.7,2.4,4.2,3.6,5.5,6.2h1.1c1.6-2.7,3.6-4.8,6.2-6.2s5.5-2.2,9.1-2.2c6,0,10.6,1.8,13.8,5.7,3.2,3.8,4.8,9.7,4.8,17.5v41.1h-.1ZM205.8,192.2c-2.1,1.1-4.5,1.8-6.9,2.5s-5.1,1-8.1,1c-6.2,0-10.8-1.7-13.8-5.1-3-3.5-4.6-9-4.6-16.8v-26.8h-6.6v-9.5l8.4-5.3,4.8-13.3h13.2v12.6h12.9v15.6h-12.9v26.2c0,4.1,1.7,6.2,5.1,6.2s2.8-.1,4.2-.7c1.4-.4,3-1,4.6-1.6v14.9h-.3Z"/>
</svg>