<?xml version="1.0" encoding="UTF-8"?>
<svg id="Ebene_1" xmlns="http://www.w3.org/2000/svg" version="1.1" viewBox="0 0 64 64">
  <!-- Generator: Adobe Illustrator 29.4.0, SVG Export Plug-In . SVG Version: 2.1.0 Build 152)  -->
  <defs>
    <style>
      .st0 {
        fill: #1d1d1b;
        fill-rule: evenodd;
      }
    </style>
  </defs>
  <path class="st0" d="M32,0C14.3,0,0,14.3,0,32s14.3,32,32,32,32-14.3,32-32S49.7,0,32,0ZM53.8,44.9c0,.4-.2.9-.6,1.1l-14.2,8.3c-.4.2-.9.2-1.3,0l-10.8-6.7c-.2-.1-.3-.3-.3-.5v-6.6c0-.2.1-.4.3-.5l7.3-4.9c.3-.2.6-.6.6-1v-8c0-.1-.1-.2-.2-.2,0,0,0,0-.1,0l-8.1,4.8c-.4.2-.9.2-1.3,0l-8.2-4.8c-.1,0-.3,0-.3,0,0,0,0,0,0,.1v14.4c0,.3-.3.6-.6.6-.1,0-.2,0-.3,0l-4.4-2.6c-.6-.3-.9-.9-.9-1.6V15.9c0-.5.5-.8.9-.5l13.9,7.9c.4.2.9.2,1.2,0l13.9-7.9c.3-.2.7,0,.9.2,0,0,0,.2,0,.3v21.8c0,.4-.2.8-.6,1.1l-8.4,5.4,5.6,3.3c.4.2.9.2,1.3,0l8.4-5.2c.2-.1.3-.3.3-.5v-7.4c0-.5.3-.9.7-1.1l4.5-2.4c.3-.2.7,0,.8.3,0,0,0,.2,0,.3v13.7ZM53.8,23.1c0,.4-.2.9-.6,1.1l-4.8,2.7c-.4.2-.9,0-.9-.5v-7.3c0-.4.2-.9.6-1.1l4.8-2.7c0,0,.2,0,.3,0,.3,0,.6.3.6.6v7.3Z"/>
</svg>