<?xml version="1.0" encoding="UTF-8"?>
<svg id="Ebene_1" xmlns="http://www.w3.org/2000/svg" version="1.1" viewBox="0 0 64 64">
  <!-- Generator: Adobe Illustrator 29.4.0, SVG Export Plug-In . SVG Version: 2.1.0 Build 152)  -->
  <path d="M44,38.4c-.3-.3-.7-.6-1.1-.9s-.9-.5-1.5-.7c-.4-.2-.8-.3-1.1-.5s-.6-.3-.8-.5c-.2-.2-.4-.3-.5-.5-.1-.2-.2-.4-.2-.6s0-.4.2-.6.3-.3.5-.4c.2-.1.4-.2.7-.3s.6,0,.9,0,.5,0,.8,0c.3,0,.6,0,.8.2.3,0,.6.2.8.3.3.1.5.3.7.4v-2.8c-.5-.2-1-.3-1.5-.4-.5,0-1.2-.1-1.9-.1s-1.4,0-2,.2c-.6.2-1.2.4-1.7.7-.5.3-.9.7-1.2,1.3-.3.5-.4,1.1-.4,1.8s.3,1.7.8,2.3c.5.6,1.3,1.2,2.4,1.6.4.2.8.3,1.2.5.4.2.7.3.9.5s.5.4.6.6c.2.2.2.4.2.7s0,.4-.1.5c0,.2-.2.3-.4.4-.2.1-.4.2-.7.3-.3,0-.6.1-1,.1-.7,0-1.3-.1-2-.3-.6-.2-1.2-.6-1.8-1v3c.5.3,1.1.4,1.7.6.7.1,1.4.2,2.1.2s1.4,0,2.1-.2c.7-.1,1.2-.4,1.7-.7.5-.3.9-.7,1.2-1.3s.4-1.2.4-1.9,0-1-.2-1.4c-.2-.4-.4-.8-.7-1.1Z"/>
  <path d="M31.9,0C14.2,0-.2,14.4-.2,32.1s14.4,32.1,32.1,32.1,32.1-14.4,32.1-32.1S49.6,0,31.9,0ZM47.5,44.5c0,1.7-1.4,3-3,3h-25c-1.7,0-3-1.4-3-3v-25c0-1.7,1.4-3,3-3h25c1.7,0,3,1.4,3,3v25Z"/>
  <polygon points="23.6 33.7 27.5 33.7 27.5 44.8 30.6 44.8 30.6 33.7 34.5 33.7 34.5 31.2 23.6 31.2 23.6 33.7"/>
</svg>