<?xml version="1.0" encoding="UTF-8"?>
<svg id="Ebene_1" xmlns="http://www.w3.org/2000/svg" version="1.1" viewBox="0 0 64 64">
  <!-- Generator: Adobe Illustrator 29.4.0, SVG Export Plug-In . SVG Version: 2.1.0 Build 152)  -->
  <defs>
    <style>
      .st0 {
        fill: #1d1d1b;
        fill-rule: evenodd;
      }
    </style>
  </defs>
  <path class="st0" d="M30.7,24.7c0-1.9,1.4-2.1,2.2-2.1s2.5.2,2.3,3.6c0,.9,6.2.5,7.1-.2,0-6.2-3.4-9.5-9.6-9.5s-9.6,3.3-9.6,8.3c0,8.7,11.8,8.8,11.8,13.6s-.7,2.1-2.1,2.1-2.6-1-2.5-4.2c0-.7-7.2-.9-7.4,0-.6,7.8,4.4,10.1,10,10.1s9.8-2.9,9.8-8.1c0-9.3-12-9.1-12-13.7Z"/>
  <path class="st0" d="M32,0C14.3,0,0,14.3,0,32s14.3,32,32,32,32-14.3,32-32S49.7,0,32,0ZM50.9,53c0,1.3-1.1,2.3-2.4,2.3s0,0-.1,0l-31.7-1.4c-1.2,0-2.2-1-2.3-2.3l-1.5-38.6c0-1.3.9-2.4,2.2-2.4l26-1.6-.2,5.3c0,0,0,.1,0,.2h0c.1.2.3.2.5.1l2.1-1.6,1.8,1.4c0,0,.1,0,.2,0,.2,0,.3-.2.3-.4l-.2-5.4,2.6-.2c1.3,0,2.4.9,2.5,2.2,0,0,0,0,0,.1v42Z"/>
</svg>