<svg id="Ebene_1" xmlns="http://www.w3.org/2000/svg" version="1.1" viewBox="0 0 64 64">
  <polygon opacity="0.5" points="41.3 46.2 43.5 21.7 32 21.7 32 48.7 41.3 46.2"/>
  <polygon points="23.3 25.2 23.6 28.7 36.9 28.7 36.7 32.3 23.9 32.3 24.2 35.9 36.3 35.9 35.9 40.4 32.1 41.4 28.2 40.4 27.9 37.6 24.3 37.6 24.8 43.1 32 45.1 39.2 43.1 40.8 25.2 23.3 25.2"/>
  <path d="M32,0C14.3,0,0,14.3,0,32s14.3,32,32,32,32-14.3,32-32S49.7,0,32,0ZM34.8,15.4h2.5v-.3h-2.5v-3.5h4.3v1.5h-2.5v.3h2.5v3.6h-4.3v-1.6ZM29.7,15.4h2.5v-.3h-2.5v-3.5h4.3v1.5h-2.5v.3h2.5v3.6h-4.3v-1.6ZM24.6,11.6h4.3v1.8h-2.5v1.8h2.5v1.8h-4.3s0-5.4,0-5.4ZM43.5,48l-11.5,3.2-11.4-3.2-2.6-28.6h28l-2.5,28.6Z"/>
</svg>