<svg id="Ebene_1" xmlns="http://www.w3.org/2000/svg" version="1.1" viewBox="0 0 64 64">
  <path d="M31.9,0C14.2,0-.2,14.4-.2,32.1s14.4,32.1,32.1,32.1,32.1-14.4,32.1-32.1S49.6,0,31.9,0ZM39.1,11.7h1.8v3.6h2.5v1.8h-4.3s0-5.4,0-5.4ZM32.1,11.7h1.9l1.2,1.9,1.2-1.9h1.9v5.4h-1.8v-2.6l-1.3,1.9-1.3-1.9v2.6h-1.9v-5.4h0ZM26.3,11.6h5v1.8h-1.6v3.6h-1.8v-3.6h-1.6s0-1.8,0-1.8ZM20.3,11.7h1.8v1.8h1.7v-1.8h1.8v5.4h-1.8v-1.8h-1.7v1.8h-1.8v-5.4ZM43.4,48.3l-11.6,3.2-11.5-3.2-2.6-28.8h28.3l-2.6,28.8Z"/>
  <polygon opacity="0.5" points="31.8 21.9 43.4 21.9 41.2 46.5 31.8 49.1 31.8 21.9"/>
  <polygon points="40.7 25.4 23 25.4 23.9 36.1 36 36.1 35.6 40.7 31.7 41.7 27.8 40.7 27.6 37.9 24.1 37.9 24.5 43.4 31.8 45.4 38.9 43.4 40 32.6 27.1 32.6 26.8 28.9 40.4 28.9 40.7 25.4"/>
</svg>