<?xml version="1.0" encoding="UTF-8"?>
<svg id="Ebene_1" xmlns="http://www.w3.org/2000/svg" version="1.1" viewBox="0 0 64 64">
  <!-- Generator: Adobe Illustrator 29.4.0, SVG Export Plug-In . SVG Version: 2.1.0 Build 152)  -->
  <path d="M31.9,0C14.2,0-.2,14.4-.2,32.1s14.4,32.1,32.1,32.1,32.1-14.4,32.1-32.1S49.6,0,31.9,0ZM51.3,22.4l-16.4,29.3c-.6,1-1.7,1.7-2.9,1.7s-2.3-.6-2.9-1.7L12.5,22.4c-.6-1-.6-2.3,0-3.3.6-1,1.7-1.6,2.9-1.6s.4,0,.6,0l8.9,1.6v-.4c0-1.3,1-2.4,2.3-2.6l12.4-2.4h.3c.9,0,1.7.4,2.3,1.1.5.7.7,1.7.5,2.5l-.4,1.3,5.7-1c.2,0,.4,0,.6,0,1.2,0,2.3.6,2.8,1.6.6,1,.6,2.2,0,3.3Z"/>
  <path d="M42,24.4l-3.5.7c-.3,0-.6-.2-.5-.6l2.3-7.9c0-.3-.2-.6-.5-.6h0l-12.1,2.4c-.2,0-.3.2-.4.4l-.7,12.6c0,.2.2.5.4.5,0,0,0,0,.1,0l3.4-.8c.3,0,.6.2.5.5l-1,4.9c0,.3.2.6.6.5l2.1-.6c.3,0,.6.2.6.5l-1.6,7.7c0,.5.5.7.8.3l.2-.3,9.9-19.7c.2-.3-.1-.7-.5-.6Z"/>
</svg>