<svg version="1.1" id="Ebene_1" xmlns="http://www.w3.org/2000/svg" xmlns:xlink="http://www.w3.org/1999/xlink" x="0px" y="0px"
	 viewBox="0 0 64 64" style="enable-background:new 0 0 64 64;" xml:space="preserve">
<path d="M32,0C14.3,0,0,14.3,0,32c0,17.7,14.3,32,32,32s32-14.3,32-32C64,14.3,49.7,0,32,0z M53.1,34.1L34,53.2
	c-1.1,1.1-2.9,1.1-4,0L10.8,34c-1.1-1.1-1.1-2.9,0-4L24,16.8l5,5c-0.5,1.2-0.3,2.7,0.7,3.7c0.3,0.3,0.7,0.6,1.1,0.7v12.1
	c-0.4,0.2-0.8,0.4-1.1,0.7c-1.3,1.3-1.3,3.4,0,4.8c1.3,1.3,3.4,1.3,4.8,0c1.3-1.3,1.3-3.4,0-4.8c-0.3-0.3-0.6-0.5-0.9-0.6v-12
	l4.5,4.5c-0.5,1.2-0.3,2.7,0.7,3.7c1.3,1.3,3.4,1.3,4.8,0c1.3-1.3,1.3-3.4,0-4.8c-0.9-0.9-2.3-1.2-3.5-0.8l-4.9-4.9
	c0.4-1.2,0.1-2.5-0.8-3.5c-0.9-0.9-2.3-1.2-3.5-0.8l-5.1-5.1l4-4c1.1-1.1,2.9-1.1,4,0l19.2,19.2C54.2,31.2,54.2,33,53.1,34.1z"/>
</svg>
