<?xml version="1.0" encoding="UTF-8"?>
<svg id="Ebene_1" xmlns="http://www.w3.org/2000/svg" version="1.1" viewBox="0 0 64 64">
  <!-- Generator: Adobe Illustrator 29.4.0, SVG Export Plug-In . SVG Version: 2.1.0 Build 152)  -->
  <defs>
    <style>
      .st0 {
        fill: #1d1d1b;
        fill-rule: evenodd;
      }
    </style>
  </defs>
  <path class="st0" d="M43.9,36.9c-2.4,0-4.4-1.6-5-3.9h-1.9c-.6,2.3-2.7,3.9-5,3.9-.3,0-.5,0-.8,0-.7,1-1.5,2-2.4,2.9-1.7,1.6-3.5,2.7-5.6,3.4l-.5.2-.4-.2c-2.4-1.3-3.7-3.8-3.2-6.2-.3,0-.5-.1-.8-.2,0,0,0,.2-.1.3-.7,1.5-1.5,3.1-1.8,4.8-.3,1.8-.4,5.1,2.1,6.9,1,.8,2.3,1.2,3.6,1.1,2.5,0,5.2-1.3,8.1-2.8,2.2-1.1,4.6-2.3,7-2.9.9-.2,1.8-.4,2.7-.5,1.6-.2,3.2-.5,4.4-1.2,1.3-.8,2.2-2.1,2.5-3.6.2-.9,0-1.8-.2-2.7-.8.4-1.7.7-2.6.7Z"/>
  <path class="st0" d="M40.3,28l-2.4-4.9-2.4,4.8c.8.7,1.3,1.7,1.6,2.8h1.8c.2-1,.7-2,1.4-2.7Z"/>
  <path class="st0" d="M19.8,34.6c1.6,0,2.9-1.3,2.9-2.9s-1.3-2.9-2.9-2.9-2.9,1.3-2.9,2.9,1.3,2.9,2.9,2.9Z"/>
  <path class="st0" d="M44.2,28.8h0s0,0-.1,0h-.1c0,0-.1,0-.2,0h0s0,0-.1,0c0,0,0,0,0,0h-.2s0,0,0,0c0,0-.1,0-.2,0,0,0,0,0,0,0,0,0,0,0-.1,0,0,0,0,0,0,0,0,0-.1,0-.2,0,0,0-.1,0-.2,0,0,0,0,0,0,0,0,0,0,0-.1,0,0,0,0,0,0,0-.1,0-.2.1-.3.2h0c-.7.6-1.1,1.4-1.1,2.3,0,1.6,1.3,2.9,2.9,2.9,1.6,0,2.9-1.3,2.9-2.9h0c0-1.4-1-2.6-2.3-2.9,0,0-.2,0-.3,0Z"/>
  <path class="st0" d="M32,0C14.3,0,0,14.3,0,32s14.3,32,32,32,32-14.3,32-32S49.7,0,32,0ZM49.1,31.7s0,0,0,0h0s0,0,0,0c0,1-.3,1.9-.8,2.7.7,1.5,1,3.1.7,4.8-.4,2.2-1.7,4.1-3.6,5.1-1.7,1-3.5,1.2-5.3,1.5-.9.1-1.7.2-2.5.4-2.2.5-4.4,1.6-6.5,2.7-3,1.5-6.1,3-9.1,3-1.8,0-3.5-.5-4.9-1.5-2.7-1.8-3.7-5.1-3.1-9.1.3-2,1.2-3.8,2-5.4,0-.2.2-.3.2-.5-.9-.9-1.5-2.2-1.5-3.6,0-2.9,2.3-5.2,5.2-5.2,2.3,0,4.3,1.5,4.9,3.6.8,2.7-.7,5.6-3.4,6.5-.5,1.5,0,3.1,1.4,4.1,1.6-.6,3-1.6,4.2-2.7.7-.6,1.3-1.3,1.8-2.1-1.3-.9-2.2-2.5-2.2-4.2,0-2.3,1.5-4.3,3.7-5l-5-14.7h24.6l-5,14.7c2.3.6,3.9,2.7,3.9,5Z"/>
  <path class="st0" d="M31.8,34.5c1.6,0,3-1.2,3-2.8,0-.7-.3-1.5-.8-2h0c-.1-.1-.3-.2-.4-.3h0s0,0-.1,0c0,0,0,0,0,0,0,0,0,0-.1,0h0s0,0-.1,0h0s0,0-.1,0c0,0,0,0,0,0,0,0,0,0-.1,0,0,0,0,0,0,0,0,0,0,0-.1,0h-.2s0,0,0,0c0,0,0,0-.1,0,0,0,0,0,0,0,0,0,0,0-.1,0h-.5s0,0-.1,0h0s0,0-.1,0h0c0,0-.1,0-.2,0-1.3.3-2.2,1.5-2.2,2.8,0,1.5,1.3,2.8,2.8,2.8Z"/>
  <path class="st0" d="M28.7,14.3l4.2,12.3c.2,0,.4,0,.5.1l4.4-8.9,4.4,9c.2,0,.3-.1.5-.1l4.2-12.3h-18.2Z"/>
</svg>