<svg version="1.1" id="Ebene_1" xmlns="http://www.w3.org/2000/svg" xmlns:xlink="http://www.w3.org/1999/xlink" x="0px" y="0px"
	 viewBox="0 0 64 64" style="enable-background:new 0 0 64 64;" xml:space="preserve">
	<path d="M32,0.3c-17.7,0-32,14.3-32,32s14.3,32,32,32s32-14.3,32-32C64,14.7,49.7,0.3,32,0.3z M50.5,37.4
			c-0.8,2.5-0.9,5.6-0.8,7.9c0.1,2.5-1.8,4.7-4.4,4.7H18.7c-2.6,0-4.5-2.3-4.4-4.7c0.1-2.4,0-5.4-0.8-7.9c-0.8-2.5-2.1-4.1-4.2-4.3
			v-2.3c2.1-0.2,3.4-1.8,4.2-4.3c0.8-2.5,0.9-5.5,0.8-7.9c-0.1-2.5,1.8-4.7,4.4-4.7h26.5c2.6,0,4.5,2.3,4.4,4.7
			c-0.1,2.4,0,5.4,0.8,7.9c0.8,2.5,2.1,4.1,4.2,4.3v2.3C52.6,33.4,51.3,34.9,50.5,37.4z"/>
	<path d="M35.2,31.5v-0.1c2-0.3,3.5-2.1,3.5-4.2c0-2.9-2.3-4.8-5.8-4.8h-7.9v19.2H33c4.2,0,6.7-2.1,6.7-5.4
		C39.7,33.6,37.9,31.8,35.2,31.5z M28.1,24.8h4.1c2.2,0,3.5,1,3.5,2.8c0,1.9-1.5,3-4.1,3h-3.4C28.1,30.6,28.1,24.8,28.1,24.8z
		 M32.4,39.2h-4.2v-6.3h4c2.9,0,4.4,1.1,4.4,3.1S35.1,39.2,32.4,39.2z"/>
</svg>
