<?xml version="1.0" encoding="UTF-8"?>
<svg id="Ebene_1" xmlns="http://www.w3.org/2000/svg" version="1.1" viewBox="0 0 64 64">
  <!-- Generator: Adobe Illustrator 29.4.0, SVG Export Plug-In . SVG Version: 2.1.0 Build 152)  -->
  <path d="M31.9,0C14.2,0-.2,14.4-.2,32.1s14.4,32.1,32.1,32.1,32.1-14.4,32.1-32.1S49.6,0,31.9,0ZM32,45.7c-5.6,0-8.2-2.6-10.4-4.9-1.4-1.4-2.6-2.6-4.3-3.1-3-.8-5.7.4-7.9,3.4,1.5-6,5.3-9,11.3-9s8.2,2.6,10.4,4.9c1.4,1.4,2.6,2.6,4.3,3.1,3,.8,5.7-.4,7.9-3.4-1.5,6-5.3,9-11.3,9ZM43.3,32.1c-5.6,0-8.2-2.6-10.4-4.9-1.4-1.4-2.6-2.6-4.3-3.1-3-.8-5.7.4-7.9,3.4,1.5-6,5.3-9,11.3-9s8.2,2.6,10.4,4.9c1.4,1.4,2.6,2.6,4.3,3.1,3,.8,5.7-.4,7.9-3.4-1.5,6-5.3,9-11.3,9Z"/>
</svg>