<?xml version="1.0" encoding="UTF-8"?>
<svg id="Ebene_1" xmlns="http://www.w3.org/2000/svg" version="1.1" viewBox="0 0 64 64">
  <!-- Generator: Adobe Illustrator 29.4.0, SVG Export Plug-In . SVG Version: 2.1.0 Build 152)  -->
  <defs>
    <style>
      .st0 {
        fill: #1d1d1b;
        fill-rule: evenodd;
      }
    </style>
  </defs>
  <path class="st0" d="M32,0C14.3,0,0,14.3,0,32s14.3,32,32,32,32-14.3,32-32S49.7,0,32,0ZM51.1,33l-8.8,15.2c-.3.6-.9.8-1.5.8h-17.6c-.6,0-1.2-.3-1.5-.8l-8.8-15.2c-.3-.6-.3-1.2,0-1.8l8.8-15.3c.3-.6.9-1,1.5-1h17.6c.6,0,1.2.4,1.5,1l8.8,15.3c.3.6.3,1.3,0,1.8Z"/>
  <path class="st0" d="M43.5,25.1l-11.2-6.5c-.2-.1-.4-.1-.6,0l-11.2,6.5c-.2.1-.3.3-.3.5v12.9c0,.2.1.4.3.5l11.2,6.5c.2.1.4.1.6,0l11.2-6.5c.2-.1.3-.3.3-.5v-12.9c0-.2-.1-.4-.3-.5ZM40,36.4c0,.2-.1.4-.3.5l-7.4,4.2c-.2.1-.4.1-.6,0l-7.4-4.2c-.2-.1-.3-.3-.3-.5v-8.5c0-.2.1-.4.3-.5l7.4-4.2c.2-.1.4-.1.6,0l7.4,4.2c.2.1.3.3.3.5v8.5Z"/>
</svg>