<?xml version="1.0" encoding="UTF-8"?>
<svg id="Ebene_1" xmlns="http://www.w3.org/2000/svg" version="1.1" viewBox="0 0 64 64">
  <!-- Generator: Adobe Illustrator 29.4.0, SVG Export Plug-In . SVG Version: 2.1.0 Build 152)  -->
  <path d="M31.9,0C14.2,0-.2,14.4-.2,32.1s14.4,32.1,32.1,32.1,32.1-14.4,32.1-32.1S49.6,0,31.9,0ZM18.5,10.1c0-1.1.9-2,2-2s1.7.7,2,1.5h5.4v-3.5h7.9v3.5h5.3c.2-.9,1-1.5,2-1.5s2,.9,2,2-.9,2-2,2-1.7-.7-2-1.5h-5.3v3.5h-7.9v-3.5h-5.4c-.2.9-1,1.5-2,1.5s-2-.9-2-2ZM24.7,53.9c0,1.3-.3,2.7-2.7,2.7s-2.7-1.3-2.7-2.7v-5.6h2.1v5c0,1.1,0,1.7.6,1.7s.6-.6.6-1.7v-5h2.1v5.6ZM21.7,29l7.3-11.5h1.7v9.8c-.7.4-1.2,1.2-1.2,2.1,0,1.4,1.1,2.5,2.5,2.5s2.5-1.1,2.5-2.5-.5-1.7-1.2-2.1v-9.8h1.6l7.3,11.5-3.9,14.9h-12.6l-3.9-14.9ZM28.2,56.5h-2.1v-8.2h2.1v8.2ZM30.6,56.5h-1.8l1.9-8.2h1.8l-1.9,8.2ZM38.6,53.9c0,1.3-.3,2.7-2.7,2.7s-2.7-1.3-2.7-2.7v-5.6h2.1v5c0,1.1,0,1.7.6,1.7s.6-.6.6-1.7v-5h2.1v5.6ZM43.1,56.5l-.9-3.1-.9,3.1h-2.1l1.8-4.2-1.6-3.9h2.2l.9,2.7.8-2.7h2.1l-1.6,3.9,1.8,4.3h-2.3Z"/>
  <rect x="29.9" y="8.2" width="3.9" height="3.9"/>
</svg>