<?xml version="1.0" encoding="UTF-8"?>
<svg id="Ebene_1" xmlns="http://www.w3.org/2000/svg" version="1.1" viewBox="0 0 64 64">
  <!-- Generator: Adobe Illustrator 29.4.0, SVG Export Plug-In . SVG Version: 2.1.0 Build 152)  -->
  <defs>
    <style>
      .st0 {
        fill: #1d1d1b;
        fill-rule: evenodd;
      }
    </style>
  </defs>
  <path class="st0" d="M32,0C14.3,0,0,14.3,0,32s14.3,32,32,32,32-14.3,32-32S49.7,0,32,0ZM48.3,39.6c.7,1.1,2.1,1.4,3,2.4,3.2,3.7,1.6,11.1-4.2,10.3,1.5-1.4,3-1,3.5-3.5,1.6-8-7-4.7-11.5-6.5.2,2.5-2.3,5-2.7,7.1-.9,4.4,3.7,5.6,5.4,2.3.4-.8.2-2,.8-2.1,2.9,8.2-9.2,8.6-9.4.9,0-3.1,4.1-10.8-1.5-10.5-4.7.2-1.7,6-1.4,8.6.1,1.6.2,3.6-.6,5-3.1,5-11.8,1.8-8.4-4,.4,2.2,1.7,4.5,4.3,3.9,4.9-1.2-1.2-8.3-.9-11.1-4.5,1.8-13.1-1.5-11.5,6.5.5,2.4,2,2.1,3.5,3.5-5.7.8-7.3-6.6-4.2-10.3.9-1,2.2-1.3,3-2.4-3.2,0-6.7-3.2-7.4-6.4-.3-1.6-.4-4.4,1-5.6-.7,5.5,4.3,9.2,9.6,8.4-5.2-4-6.5-9.1-2.4-14.5,1.6-2.2,8.3-6.5,1.2-6.2.5-2.4,4.7-2.2,5.2.2.9,4.8-9.1,8.9-3.8,15.3,2.2,2.7,7.4,0,7.4-1.4,0-.2-1.7-1.4-1.9-2.9-.2-1.1.3-1.8.3-2.7,0-2.2-1.5-3.8-1.2-7.2,1.1-12.4,17.9-11.3,16.8,2.8-.1,1.7-1.1,3.2-1.2,4.4,0,1,.5,1.6.2,3-.5,2.3-3.2,2.1-.2,4.1,5.5,3.8,8.9-3.3,6-8-1.4-2.3-5-4.4-4-7.8.5-1.7,3.4-2,4.6-1,.1,0,.6,1,.5,1.1-7.1-.3-.4,4,1.2,6.2,4.1,5.5,2.8,10.6-2.4,14.5,5.3.8,10.2-2.8,9.6-8.4,1.4,1.2,1.4,4,1,5.6-.7,3.1-4.2,6.3-7.4,6.4Z"/>
</svg>