<?xml version="1.0" encoding="utf-8"?>
<!-- Generator: Adobe Illustrator 26.3.1, SVG Export Plug-In . SVG Version: 6.00 Build 0)  -->
<svg version="1.1" id="Ebene_1" xmlns="http://www.w3.org/2000/svg" xmlns:xlink="http://www.w3.org/1999/xlink" x="0px" y="0px"
	 viewBox="0 0 64 64" style="enable-background:new 0 0 64 64;" xml:space="preserve">
<style type="text/css">
	.st0{fill:#E6007E;}
	.st1{fill:#FFFFFF;}
	.st2{fill:#FF7CC4;}
	.st3{fill:#970060;}
</style>
<g id="html">
	<circle id="circle-html" class="st0" cx="31.9" cy="32.1" r="32.1"/>
	<g id="icon_00000130628465539628047060000016797435821580372148_">
		<path id="white" class="st1" d="M20.3,11.7h1.8v1.8h1.7v-1.8h1.8v5.4h-1.8v-1.8h-1.7v1.8h-1.8 M27.9,13.4h-1.6v-1.8h5v1.8h-1.6V17
			h-1.8 M32.1,11.7H34l1.2,1.9l1.2-1.9h1.9v5.4h-1.8v-2.6l-1.3,1.9l-1.3-1.9v2.6H32 M39.1,11.7h1.8v3.6h2.5v1.8h-4.3"/>
		<path class="st1" d="M17.7,19.5l2.6,28.8l11.5,3.2l11.6-3.2L46,19.5L17.7,19.5L17.7,19.5z M31.8,45.4l-7.3-2l-0.4-5.5h3.5l0.2,2.8
			l4,1V45.4z M31.8,28.9h-5l0.3,3.6h4.7V36h-7.9L23,25.4h8.9V28.9z"/>
		<path id="light" class="st2" d="M31.8,49.1V21.9h11.6l-2.2,24.6L31.8,49.1z"/>
		<path id="_x35_" class="st3" d="M40.7,25.4h-8.8v3.5h8.5 M40,32.6h-8.3v3.5h4.3l-0.4,4.6l-3.9,1v3.7l7.2-2"/>
	</g>
</g>
</svg>
