<?xml version="1.0" encoding="utf-8"?>
<!-- Generator: Adobe Illustrator 27.0.1, SVG Export Plug-In . SVG Version: 6.00 Build 0)  -->
<svg version="1.1" id="Ebene_1" xmlns="http://www.w3.org/2000/svg" xmlns:xlink="http://www.w3.org/1999/xlink" x="0px" y="0px"
	 viewBox="0 0 64 64" style="enable-background:new 0 0 64 64;" xml:space="preserve">
<style type="text/css">
	.st0{fill:#E6007E;}
	.st1{fill:#FFFFFF;}
</style>
<g id="js">
	<circle id="circle-js" class="st0" cx="32" cy="31.6" r="32"/>
</g>
<g>
	<path class="st1" d="M13.9,32c0,7.2,4.2,13.4,10.2,16.3l-8.6-23.7C14.4,26.9,13.9,29.3,13.9,32z"/>
	<path class="st1" d="M44.2,31c0-2.2-0.8-3.8-1.5-5c-0.9-1.5-1.8-2.8-1.8-4.2c0-1.7,1.3-3.2,3-3.2c0.1,0,0.2,0,0.2,0
		c-3.2-2.9-7.5-4.8-12.2-4.8c-6.3,0-11.9,3.2-15.1,8.2c0.4,0,0.8,0,1.2,0c1.9,0,4.8-0.2,4.8-0.2c1-0.1,1.1,1.4,0.1,1.5
		c0,0-1,0.1-2.1,0.2l6.6,19.6l4-11.9l-2.8-7.7c-1-0.1-1.9-0.2-1.9-0.2c-1-0.1-0.9-1.6,0.1-1.5c0,0,3,0.2,4.8,0.2
		c1.9,0,4.8-0.2,4.8-0.2c1-0.1,1.1,1.4,0.1,1.5c0,0-1,0.1-2.1,0.2L41.1,43l1.8-6C43.6,34.4,44.2,32.6,44.2,31z"/>
	<path class="st1" d="M32.3,33.6l-5.4,15.8c1.6,0.5,3.3,0.7,5.1,0.7c2.1,0,4.1-0.4,6-1c-0.1-0.1-0.1-0.2-0.1-0.3L32.3,33.6z"/>
	<path class="st1" d="M47.9,23.3c0.1,0.6,0.1,1.2,0.1,1.9c0,1.8-0.4,3.9-1.4,6.5l-5.5,16c5.4-3.1,9-9,9-15.7
		C50.1,28.8,49.3,25.8,47.9,23.3z"/>
	<path class="st1" d="M32,10.8c-11.6,0-21.1,9.5-21.1,21.1S20.4,53.1,32,53.1S53.1,43.6,53.1,32S43.6,10.8,32,10.8z M32,52.1
		c-11.1,0-20.2-9.1-20.2-20.2S20.9,11.8,32,11.8S52.2,20.8,52.2,32C52.1,43.1,43.1,52.1,32,52.1z"/>
</g>
</svg>
