<?xml version="1.0" encoding="utf-8"?>
<!-- Generator: Adobe Illustrator 26.3.1, SVG Export Plug-In . SVG Version: 6.00 Build 0)  -->
<svg version="1.1" id="Ebene_1" xmlns="http://www.w3.org/2000/svg" xmlns:xlink="http://www.w3.org/1999/xlink" x="0px" y="0px"
	 viewBox="0 0 64 64" style="enable-background:new 0 0 64 64;" xml:space="preserve">
<style type="text/css">
	.st0{fill:#E6007E;}
</style>
<g>
	<path class="st0" d="M40.8,33.4c-0.4,0.8-0.8,1.5-1.2,2.2c-0.4,0.8-0.9,1.5-1.4,2.2c1.4-0.2,2.7-0.4,3.9-0.7
		C41.8,36,41.3,34.8,40.8,33.4z"/>
	<path class="st0" d="M26.7,22.9c1.2-1.8,2.5-3.3,3.8-4.7c-2.8-2.7-5.5-4.2-7.3-4.2c-0.5,0-0.9,0.1-1.3,0.3c-1.7,1-2.1,4.6-0.8,9.5
		C22.9,23.4,24.8,23.1,26.7,22.9z"/>
	<path class="st0" d="M31.8,22.6c0.9,0,1.8,0,2.6,0.1c-0.8-1.2-1.7-2.2-2.6-3.1c-0.8,0.9-1.7,2-2.6,3.1C30.1,22.6,31,22.6,31.8,22.6
		z"/>
	<path class="st0" d="M25.5,37.9c-0.4-0.7-0.9-1.4-1.3-2.1s-0.8-1.5-1.2-2.2c-0.5,1.3-1,2.5-1.4,3.7C22.8,37.6,24.2,37.8,25.5,37.9z
		"/>
	<path class="st0" d="M25.4,24.8c-1.4,0.2-2.6,0.4-3.8,0.7c0.3,1.1,0.8,2.3,1.3,3.6c0.4-0.7,0.8-1.5,1.2-2.1
		C24.6,26.2,25,25.5,25.4,24.8z"/>
	<path class="st0" d="M27.9,38.2c1.3,0.1,2.6,0.2,3.9,0.2c1.4,0,2.7-0.1,3.9-0.2c0.7-1,1.4-2.1,2.1-3.2c0.7-1.2,1.3-2.4,1.9-3.6
		c-0.6-1.2-1.2-2.4-1.9-3.6c-0.7-1.2-1.3-2.2-2-3.2c-1.3-0.1-2.6-0.2-4-0.2c-1.4,0-2.7,0.1-3.9,0.2c-0.7,1-1.4,2.1-2.1,3.3
		c-0.7,1.2-1.3,2.3-1.9,3.5c0.5,1.2,1.2,2.3,1.9,3.5C26.5,36,27.2,37.1,27.9,38.2z M31.9,27.5c2.1,0,3.9,1.7,3.9,3.9
		s-1.7,3.9-3.9,3.9c-2.1,0-3.9-1.7-3.9-3.9S29.7,27.5,31.9,27.5z"/>
	<path class="st0" d="M38.3,24.8c0.4,0.7,0.9,1.4,1.3,2.2c0.4,0.7,0.8,1.5,1.2,2.1c0.5-1.3,1-2.5,1.4-3.7C41,25.2,39.7,25,38.3,24.8
		z"/>
	<path class="st0" d="M42.6,23.7c1.3-4.9,0.9-8.4-0.8-9.4c-0.3-0.3-0.8-0.4-1.3-0.4c-1.8,0-4.5,1.5-7.3,4.3c1.3,1.4,2.5,2.9,3.7,4.7
		C39,23,40.9,23.4,42.6,23.7z"/>
	<path class="st0" d="M43.9,25.9c-0.5,1.7-1.2,3.5-2,5.3c0.9,1.9,1.6,3.8,2.1,5.5c4.8-1.4,7.6-3.5,7.6-5.4
		C51.6,29.4,48.7,27.3,43.9,25.9z"/>
	<path class="st0" d="M32-0.3c-17.7,0-32,14.3-32,32c0,17.7,14.3,32,32,32s32-14.3,32-32C64,14.1,49.7-0.3,32-0.3z M44.5,38.7
		c1.4,5.6,0.9,10-1.8,11.5c-0.7,0.3-1.4,0.5-2.2,0.5c-1.9,0-4.3-1-6.7-3.1c-0.7-0.5-1.3-1.1-2-1.8c-0.6,0.6-1.3,1.2-1.9,1.6
		c-2.5,2.1-4.8,3.2-6.7,3.2c-0.8,0-1.5-0.2-2.2-0.6c-2.6-1.5-3.1-5.9-1.8-11.4c-5.5-1.6-9-4.2-9-7.2c0-3,3.6-5.6,9.1-7.2
		c-1.4-5.6-0.9-10,1.8-11.6c2.6-1.5,6.6,0.2,10.7,4.2c4.2-4,8.2-5.8,10.8-4.3c2.6,1.5,3.1,6,1.7,11.7c5.5,1.6,9.2,4.2,9.2,7.2
		C53.5,34.4,50,37.1,44.5,38.7z"/>
	<path class="st0" d="M21.2,39.1c-1.3,4.9-0.9,8.4,0.8,9.4c1.4,0.8,3.9-0.1,6.8-2.4c0.6-0.5,1.2-1,1.8-1.6c-1.2-1.3-2.5-2.8-3.6-4.5
		C24.9,39.8,23,39.5,21.2,39.1z"/>
	<path class="st0" d="M36.8,40c-1.2,1.6-2.4,3.1-3.6,4.4c0.6,0.6,1.2,1.1,1.8,1.6c2.9,2.4,5.4,3.2,6.8,2.4c1.7-1,2.1-4.5,0.9-9.3
		C40.9,39.5,38.9,39.9,36.8,40z"/>
	<path class="st0" d="M19.8,25.9c-4.8,1.4-7.7,3.5-7.7,5.4s2.8,4.1,7.7,5.4c0.5-1.8,1.2-3.6,2.1-5.5C21,29.4,20.4,27.6,19.8,25.9z"
		/>
	<path class="st0" d="M31.9,40.2c-0.8,0-1.6,0-2.5-0.1c0.8,1,1.6,2,2.5,3c0.8-0.9,1.6-1.9,2.5-3C33.5,40.2,32.7,40.2,31.9,40.2z"/>
</g>
</svg>
