<svg version="1.1" id="Ebene_1" xmlns="http://www.w3.org/2000/svg" xmlns:xlink="http://www.w3.org/1999/xlink" x="0px" y="0px"
	 viewBox="0 0 64 64" style="enable-background:new 0 0 64 64;" xml:space="preserve">

	<path class="st0" d="M38.2,23.5c-0.4,0-0.8,0.2-1.1,0.4c-0.3,0.3-0.4,0.7-0.4,1.1s0.2,0.9,0.4,1.1c0.3,0.3,0.7,0.4,1.1,0.4
		c0.4,0.1,0.8-0.2,1.1-0.4c0.3-0.3,0.4-0.7,0.4-1.1s-0.2-0.8-0.4-1.1C39.1,23.7,38.7,23.5,38.2,23.5z"/>
	<path class="st0" d="M39.4,27.7H37c-0.1,0-0.2,0.1-0.2,0.2v9.5c0,0.1,0.1,0.2,0.2,0.2l2.3-0.1c0.1,0,0.2-0.1,0.2-0.2v-9.5
		C39.6,27.8,39.5,27.7,39.4,27.7z"/>
	<path class="st0" d="M32.3,0C14.7,0,0.5,14.2,0.5,31.8c0,17.5,14.2,31.8,31.8,31.8C49.8,63.5,64,49.3,64,31.8
		C64,14.2,49.8,0,32.3,0z M46.9,40.8c0,2.9-2.3,5.3-5.3,5.3H22.5c-2.9,0-5.3-2.3-5.3-5.3V22.4c0-2.9,2.4-5.3,5.3-5.3h19.2
		c2.9,0,5.3,2.3,5.3,5.3V40.8z"/>
	<path class="st0" d="M31,24.7c0-0.1-0.1-0.1-0.2-0.1h-3.2h-0.1c-0.1,0-0.1,0.1-0.1,0.2c0,0.3-0.1,0.6-0.1,0.8
		c-0.1,0.2-0.1,0.2-0.2,0.4l-4,11.4c-0.1,0.1,0,0.2,0.2,0.2h2.3c0.1,0,0.2-0.1,0.2-0.2l1-2.9h4.6l1,3c0,0.1,0.1,0.2,0.2,0.2h2.6
		c0.2,0,0.2-0.1,0.2-0.2L31,24.7z M27.6,32c0.2-0.5,0.4-1.1,0.5-1.7c0.2-0.6,0.4-1.2,0.6-1.8c0.2-0.6,0.3-1.1,0.4-1.6h0.1
		c0.1,0.3,0.2,0.7,0.3,1c0.1,0.3,0.2,0.7,0.3,1.1c0.2,0.4,0.2,0.8,0.4,1.1c0.1,0.3,0.3,0.7,0.3,1c0.1,0.3,0.2,0.7,0.3,0.9H27.6z"/>
</svg>
