<svg version="1.1" id="Ebene_1" xmlns="http://www.w3.org/2000/svg" xmlns:xlink="http://www.w3.org/1999/xlink" x="0px" y="0px"
	 viewBox="0 0 64 64" style="enable-background:new 0 0 64 64;" xml:space="preserve">
<path d="M32,0.3c-17.7,0-32,14.3-32,32s14.3,32,32,32s32-14.3,32-32C64,14.7,49.7,0.3,32,0.3z M18,43.4
	c-2.1,0-3.8-1.8-3.8-3.9c0-2.2,1.7-3.9,3.8-3.9c2.1,0,3.8,1.8,3.8,3.9S20,43.4,18,43.4z M24.8,35.4c-2,0-3.7-1.7-3.7-3.9
	s1.7-3.9,3.8-3.9c2.1,0,3.8,1.8,3.8,3.9C28.7,33.7,27,35.4,24.8,35.4z M36.5,38.3c-0.2,0.9-0.4,1.9-0.8,2.8c-0.7,1.7-2.5,2.4-4.3,2
	c-1.5-0.3-2.7-1.9-2.8-3.5c0-1.8,1-3.4,2.7-3.9c0.9-0.3,1.7-0.4,2.6-0.5c1.5-0.2,2.1-0.7,2.5-1.4c0.2-0.4,0.5-0.9,0.5-2.3
	s-0.2-1.8-0.5-2.3c-0.4-0.8-0.5-1.7-2.1-1.8c-0.9,0-1.8-0.2-2.6-0.5C30,26.4,29,24.8,29,23c0.1-1.6,1.4-3.1,2.9-3.5
	c1.7-0.4,3.5,0.3,4.3,2c0.4,0.8,0.2,2.2,0.4,3.2c0.3,1.7,0.9,2.4,2.6,2.6c1.1,0.1,1.6,0,2.6,0.3c1.6,0.5,2.5,2.1,2.5,3.8
	c0,1.7-0.9,2.9-2,3.7c-1,0.6-2.1,0.5-3.2,0.6C37.5,35.9,36.8,36.6,36.5,38.3z M46,43.4c-2.1,0-3.8-1.7-3.8-3.9s1.7-3.9,3.8-3.9
	c2.1,0,3.8,1.7,3.8,3.9C49.8,41.6,48.2,43.4,46,43.4z"/>
</svg>
