<?xml version="1.0" encoding="utf-8"?>
<!-- Generator: Adobe Illustrator 26.3.1, SVG Export Plug-In . SVG Version: 6.00 Build 0)  -->
<svg version="1.1" id="Ebene_1" xmlns="http://www.w3.org/2000/svg" xmlns:xlink="http://www.w3.org/1999/xlink" x="0px" y="0px"
	 viewBox="0 0 64 64" style="enable-background:new 0 0 64 64;" xml:space="preserve">
<style type="text/css">
	.st0{fill:#E6007E;}
</style>
<path class="st0" d="M31.9-0.2C14.3-0.2,0,14.1,0,31.8s14.3,31.9,31.9,31.9s31.9-14.3,31.9-31.9S49.6-0.2,31.9-0.2z M46.7,42
	c0,3-2.4,5.3-5.3,5.3H22.1c-3,0-5.3-2.4-5.3-5.3V23.5c0-3,2.4-5.3,5.3-5.3h19.3c3,0,5.3,2.4,5.3,5.3V42z"/>
<path class="st0" d="M28.8,32l3.8-6.2c0,0,0.1-0.1,0.3-0.1c0-0.1-0.1-0.1-0.2-0.1H30c-0.1,0-0.1,0-0.2,0.1c-0.1,0.1-0.1,0.1-0.1,0.2
	c-0.2,0.5-0.5,1-0.8,1.5c-0.2,0.5-0.5,1-0.8,1.5s-0.6,1-0.8,1.6h-0.1c-0.2-0.5-0.5-1-0.8-1.5c-0.3-0.5-0.6-1-0.9-1.5
	c-0.3-0.5-0.5-1-0.8-1.6c-0.1-0.1-0.1-0.1-0.2-0.1c-0.1-0.1-0.2-0.1-0.2-0.1h-2.8c-0.1,0-0.1,0-0.2,0.1c0,0.1,0,0.1,0.1,0.2l3.8,6.3
	l-3.9,6.3c-0.1,0.1-0.1,0.1-0.1,0.2c0,0.1,0.1,0.1,0.1,0.1h2.7c0.1,0,0.2,0,0.3-0.2c0.3-0.5,0.6-1,0.9-1.5c0.2-0.5,0.5-1,0.8-1.6
	c0.3-0.5,0.6-1,0.8-1.6c0.3,0.5,0.6,1,0.9,1.6c0.3,0.5,0.6,1,0.8,1.5c0.2,0.5,0.5,1,0.8,1.5c0.1,0.2,0.2,0.2,0.4,0.2h2.8
	c0.1-0.1,0.2,0,0.2-0.1c0-0.1,0-0.1-0.1-0.2L28.8,32z"/>
<path class="st0" d="M42.3,37.4c-0.1-0.2-0.1-0.5-0.1-0.7V24.8v-0.1c-0.1-0.1-0.1-0.1-0.2-0.1h-2.5c-0.1,0-0.2,0.1-0.2,0.2v3.9
	c-0.2-0.1-0.3-0.1-0.4-0.1c-0.1,0-0.2,0-0.2,0c-1.2,0-2.2,0.2-3.1,0.7c-0.8,0.4-1.4,1.1-1.9,1.9c-0.4,0.8-0.7,1.7-0.7,2.6
	c0,1.1,0.2,2.1,0.7,2.8c0.4,0.7,1,1.4,1.8,1.7c0.8,0.4,1.7,0.6,2.6,0.6c0.7,0,1.3-0.1,1.9-0.2c0.7-0.1,1.4-0.3,2-0.6
	c0.1-0.1,0.2-0.1,0.2-0.2C42.4,37.9,42.4,37.6,42.3,37.4z M39.5,36.5c-0.1,0.1-0.3,0.1-0.4,0.1c-0.2,0.1-0.3,0.1-0.5,0.1
	c-0.4,0-0.7-0.1-1-0.2c-0.3-0.1-0.7-0.3-0.9-0.5c-0.3-0.3-0.4-0.5-0.6-0.9c-0.2-0.4-0.2-0.9-0.2-1.3c0-0.7,0.2-1.2,0.4-1.6
	c0.3-0.4,0.6-0.7,1-0.9c0.4-0.2,0.9-0.3,1.4-0.3c0.2,0,0.3,0.1,0.4,0.1c0.1,0,0.2,0,0.3,0.1V36.5z"/>
</svg>
