<?xml version="1.0" encoding="utf-8"?>
<!-- Generator: Adobe Illustrator 26.3.1, SVG Export Plug-In . SVG Version: 6.00 Build 0)  -->
<svg version="1.1" id="Ebene_1" xmlns="http://www.w3.org/2000/svg" xmlns:xlink="http://www.w3.org/1999/xlink" x="0px" y="0px"
	 viewBox="0 0 64 64" style="enable-background:new 0 0 64 64;" xml:space="preserve">
<style type="text/css">
	.st0{fill:#E6007E;}
	.st1{fill:#FFFFFF;}
</style>
<g id="js">
	<circle id="circle-js" class="st0" cx="32" cy="31.6" r="32"/>
	<g id="icon_00000143592885093920396530000010052768319376245899_">
		<path class="st1" d="M16.7,17.7v29.8h29.8V17.7L16.7,17.7L16.7,17.7z M32.8,40.9c0,2.9-1.7,4.2-4.2,4.2c-2.2,0-3.5-1.2-4.2-2.6
			l2.4-1.4c0.4,0.8,0.8,1.4,1.8,1.4c0.9,0,1.5-0.3,1.5-1.8v-9.5h2.8L32.8,40.9L32.8,40.9z M39.3,45.2c-2.6,0-4.3-1.3-5.1-2.8
			l2.4-1.3c0.6,1,1.4,1.7,2.7,1.7c1.2,0,1.9-0.6,1.9-1.4c0-1-0.8-1.3-2-1.8l-0.7-0.3c-2-0.9-3.4-1.9-3.4-4.2c0-2.1,1.6-3.7,4.1-3.7
			c1.8,0,3.1,0.6,3.9,2.2L41,34.9c-0.5-0.9-1-1.2-1.8-1.2c-0.8,0-1.4,0.5-1.4,1.2c0,0.8,0.5,1.2,1.8,1.7l0.7,0.3
			c2.4,1,3.7,2.1,3.7,4.4C44,43.8,42,45.2,39.3,45.2z"/>
	</g>
</g>
</svg>
