<?xml version="1.0" encoding="utf-8"?>
<!-- Generator: Adobe Illustrator 26.3.1, SVG Export Plug-In . SVG Version: 6.00 Build 0)  -->
<svg version="1.1" id="Ebene_2_00000021116155777047903040000015850838684381925027_"
	 xmlns="http://www.w3.org/2000/svg" xmlns:xlink="http://www.w3.org/1999/xlink" x="0px" y="0px" viewBox="0 0 249 248.5"
	 style="enable-background:new 0 0 249 248.5;" xml:space="preserve">
<style type="text/css">
	.st0{fill:#E6007E;}
</style>
<path class="st0" d="M216.2,190.1c-3.1,0-5.4-0.9-7.3-2.5c-1.9-1.6-2.8-4.1-2.8-7.3c0-3.3,0.9-5.7,2.8-7.4c1.7-1.6,4.2-2.5,7.3-2.5
	s5.4,0.9,7.1,2.5c0.9,0.7,1.5,1.7,1.9,2.9c8.1-15.7,12.8-33.5,12.8-52.4C238,60.8,187.2,10,124.6,10S11.1,60.8,11.1,123.4
	s50.8,113.4,113.4,113.4C162.4,236.9,195.7,218.4,216.2,190.1C216.3,190.1,216.2,190.1,216.2,190.1z M155.5,188.8h-17.9v-32
	c0-4.1-0.4-7-1.3-8.9c-0.9-1.9-2.2-2.8-3.9-2.8c-2.6,0-4.4,1.3-5.4,3.9c-1,2.6-1.5,6.7-1.5,12.2v27.5h-18v-32
	c0-7.9-1.7-11.8-5.1-11.8c-2.6,0-4.5,1.5-5.4,4.4c-1,2.9-1.5,7.4-1.5,13.5v25.7h-18v-57.9h13.8l2.2,7.1h0.9c1.2-2.6,3.1-4.7,5.7-6
	c2.6-1.5,5.7-2.2,9.3-2.2c3.6,0,6.7,0.7,8.9,2.2s3.9,3.3,5.1,5.7h1c1.5-2.5,3.3-4.4,5.7-5.7s5.1-2,8.4-2c5.5,0,9.7,1.7,12.7,5.2
	c2.9,3.5,4.4,8.9,4.4,16.1V188.8z M199.2,186.6c-1.9,1-4.1,1.7-6.3,2.3c-2.2,0.6-4.7,0.9-7.4,0.9c-5.7,0-9.9-1.6-12.7-4.7
	c-2.8-3.2-4.2-8.3-4.2-15.4v-24.6h-6.1v-8.7l7.7-4.9l4.4-12.2h12.1v11.6h11.9v14.3h-11.9v24.1c0,3.8,1.6,5.7,4.7,5.7
	c1.3,0,2.6-0.1,3.9-0.6c1.3-0.4,2.8-0.9,4.2-1.5v13.7L199.2,186.6L199.2,186.6z"/>
</svg>
