<svg id="Ebene_1" xmlns="http://www.w3.org/2000/svg" version="1.1" viewBox="0 0 64 64">
  <!-- Generator: Adobe Illustrator 29.1.0, SVG Export Plug-In . SVG Version: 2.1.0 Build 142)  -->
  <defs>
    <style>
      .st0 {
        fill: #e6007e;
      }
    </style>
  </defs>
  <path class="st0" d="M46.5,29.3c-.5-.2-1.5-.3-2.6-.3h-.9l-1.2,6.1h.6c1.2,0,2.4,0,3.2-.4.9-.3,1.4-1.2,1.7-3,.3-1.4,0-2.2-.8-2.4Z"/>
  <path class="st0" d="M22.7,29.3c-.7-.2-1.6-.3-2.7-.3h-.8l-1.2,6.1h.6c1.2,0,2.4,0,3.2-.4.9-.3,1.4-1.2,1.7-3,.3-1.4,0-2.2-.8-2.4Z"/>
  <path class="st0" d="M46.9,3.2C31.3-5,12,1.1,3.8,16.7s-2.2,34.9,13.5,43.1c15.6,8.2,34.9,2.2,43.1-13.5,8.2-15.6,2.2-34.9-13.5-43.1ZM26.5,31.5c0,.7-.3,1.4-.5,2.1-.3.7-.8,1.2-1.2,1.9-.7.7-1.3,1.2-2.1,1.3-.8.2-1.5.3-2.4.3h-2.5l-.8,3.7h-3.1l2.8-14.3h.4c0,0,5.2,0,5.2,0,1.5,0,2.7.4,3.5,1.3.8.9,1,2.1.7,3.6ZM37.6,30.6l-1.3,6.7h-2.8l1.2-6.4c0-.7,0-1.2-.1-1.4-.2-.3-.7-.4-1.4-.4h-2.2l-1.6,8.4h-2.7l2.8-14.6h2.8l-.8,3.7h2.5c1.3,0,2.4.3,3.1.9.7.6.9,1.5.5,3.1ZM50.3,31.5c0,.7-.3,1.4-.5,2.1-.3.7-.8,1.2-1.2,1.9-.7.7-1.3,1.2-2.1,1.3-.8.2-1.5.3-2.4.3h-2.4l-.8,3.7h-2.9l2.8-14.2h-.3.3c0,0,0,0,0,0h5.3c1.5,0,2.7.4,3.5,1.3.8.9,1,2.1.7,3.6Z"/>
</svg>