<?xml version="1.0" encoding="utf-8"?>
<!-- Generator: Adobe Illustrator 26.3.1, SVG Export Plug-In . SVG Version: 6.00 Build 0)  -->
<svg version="1.1" id="Ebene_1" xmlns="http://www.w3.org/2000/svg" xmlns:xlink="http://www.w3.org/1999/xlink" x="0px" y="0px"
	 viewBox="0 0 64 64" style="enable-background:new 0 0 64 64;" xml:space="preserve">
<style type="text/css">
	.st0{fill:#E6007E;}
	.st1{fill:#FFFFFF;}
	.st2{fill:#FF7CC4;}
</style>
<g>
	<circle class="st0" cx="32" cy="31.9" r="32"/>
	<path class="st1" d="M18.5,20.4c-0.2,0-0.3,0.1-0.4,0.3C18,20.8,18,21.1,18,21.2c0,0.1,0.3,0.5,0.6,0.7c-0.3,0.4-0.8,1.1-1.1,1.5
		c-1.9,2.8-3,5.3-3.2,7.2c-0.1,1,0.1,1.7,0.6,2.2c0.3,0.4,0.7,0.6,1.4,0.8c0.5,0.1,1.3,0.1,2.1,0c-0.5,0.7-1.2,1.8-1.6,2.5
		c-0.6,1.1-1.2,2.4-1.5,3.2c-0.4,1.3-0.5,2.4-0.2,3.5c0.2,0.6,0.4,1.2,0.8,1.6c0.4,0.4,0.9,0.7,1.4,0.8c1,0.3,2.4,0.2,4.2-0.2
		c0.4-0.1,1-0.2,1.4-0.4c-0.4,1.3-0.3,2.6,0.1,3.5c0.1,0.3,0.5,0.8,0.8,0.9c1.4,1,4.3,1,8.3-0.2c0.3-0.1,1.2-0.4,1.6-0.6
		c0.3,0.4,0.6,0.6,1.2,0.6c0.4,0,0.8,0,1.1-0.2c0.2-0.1,0.2-0.2,0.3-0.3c0.1-0.1,0.1-0.3,0-0.4c-0.1-0.2-0.1-0.2-0.3-0.3
		c-0.1,0-0.2-0.1-0.4-0.1c-0.2,0-0.2,0-0.3-0.1l0,0c0.7-0.3,2.2-1,3.1-1.5c3.4-1.9,6.9-4.5,9.3-6.9c2.2-2.1,4.3-4.8,4.7-5.9
		c0.1-0.3,0.2-0.7,0.1-1c0-0.2-0.1-0.3-0.3-0.5c-0.2-0.3-0.3-0.3-0.5-0.4c-0.7-0.3-1.7,0-3.8,1.3c-2.6,1.6-6.5,4.6-9.3,7.1
		c-2.7,2.5-4.5,4.6-5.2,6.2c-0.1,0.2-0.1,0.3-0.1,0.3c0,0-0.4,0.2-0.8,0.3c-2.2,0.9-4.2,1.4-5.6,1.4c-0.4,0-1,0-1.4-0.1
		c-0.3-0.1-0.6-0.2-0.7-0.3c-0.2-0.1-0.2-0.4-0.2-0.7c0-0.4,0.1-0.9,0.2-1.4c0.1-0.4,0.5-1.3,0.7-1.7l0.4-0.2
		c2.4-0.9,5.2-2.2,7.7-3.7c3.5-2,7.5-4.8,11-7.8c2.1-1.7,3.3-2.9,4.4-4.2c0.8-1,1.5-2.2,1.7-2.9c0.1-0.5,0.1-0.9,0-1.2
		c-0.1-0.4-0.4-0.7-0.7-0.9c-1-0.6-2.7-0.3-5,0.7c-2.2,1-5,2.7-8.1,5.1c-1.9,1.4-4.5,3.6-5.9,4.9c-3.5,3.3-5.9,6.2-7.3,8.7l-0.1,0.2
		c-1.2,0.4-3,1-3.9,1.1c-0.8,0.1-1.5,0.2-1.9,0.1c-0.3-0.1-0.5-0.1-0.6-0.3c-0.2-0.2-0.3-0.4-0.3-0.7c-0.1-0.5-0.1-1.3,0.1-1.8
		c0.4-1.8,1.9-4.3,4.1-7.3l0.5-0.6l0.5-0.2c3.3-1.2,7.3-3.5,10.9-6.1c2-1.4,4.1-3.2,5.6-4.6c1.2-1.1,2.1-2.2,2.8-3.1
		c0.6-0.9,1-1.6,1.2-2.2c0.2-0.7,0.1-1.3-0.1-1.7c-0.2-0.4-0.5-0.6-1-0.7c-0.4-0.1-0.8-0.1-1.4,0c-1.5,0.4-3.7,1.8-6.9,4.2
		c-0.8,0.6-3.4,2.8-4.2,3.5c-3.3,3-6.2,6.1-8.6,9.1l-0.5,0.6l-0.3,0.1c-0.8,0.2-1.6,0.4-2.2,0.4c-0.4,0-0.8,0-1-0.1
		c-0.1,0-0.1-0.1-0.2-0.1c-0.1-0.2-0.1-0.3-0.1-0.6c0-1.3,0.8-3.5,2.3-5.8c0.6-0.9,1.2-1.8,1.9-2.7l0.3-0.4c1.1-0.3,2.1-1,3.7-2.3
		c1.8-1.5,3.6-3.5,4.1-4.1c0.6-0.8,0.8-1.6,0.7-1.9c-0.1-0.2-0.2-0.4-0.4-0.5c-0.2-0.1-0.4-0.2-0.6-0.2c-0.3,0-0.9,0.4-1.8,1
		c-0.6,0.4-2.3,1.8-3,2.5c-1.3,1.2-2.2,2.1-3.3,3.3l-0.3,0.4c-0.3,0.1-0.6,0-0.8,0C18.8,20.4,18.6,20.4,18.5,20.4z M31.9,22.1
		c0.9-0.8,1.3-1.1,2.6-2.2c1.5-1.2,3.2-2.4,4.5-3.1c0.6-0.3,1.2-0.6,1.6-0.7c-0.1,0.2-0.3,0.5-0.4,0.7c-0.8,1.2-2.1,2.7-4,4.5
		c-0.6,0.5-3.4,2.9-4.1,3.5c-2.4,1.8-4.6,3.2-6.9,4.4c-0.3,0.2-0.6,0.3-1,0.5C26.5,27,29.2,24.4,31.9,22.1L31.9,22.1z M43.8,26.5
		c2.4-1.5,4.5-2.3,5.4-2.3c0,0.1-0.1,0.2-0.1,0.3c-0.4,0.9-1.4,2.2-3,3.7c-0.6,0.6-3.1,2.6-4.2,3.5c-5.5,4.2-9.9,7-14.3,9
		c0.8-1,1.8-2.3,2.9-3.4c1.9-2,4.2-4.1,6.6-6C39.7,29.2,41.7,27.8,43.8,26.5z M45.2,37.1c1.8-1.4,3.4-2.5,4.6-3.2
		c-0.1,0.2-0.2,0.3-0.3,0.4c-1.9,2.4-4.1,4.5-6.9,6.6c-1.6,1.2-3.3,2.3-5,3.2c1-1.1,2.2-2.3,3.8-3.8C41.7,39.9,44.7,37.5,45.2,37.1
		L45.2,37.1z"/>
	<ellipse class="st2" cx="32" cy="31.9" rx="10.4" ry="10.4"/>
	<path class="st1" d="M51.9,31.1c0.2,0.1,0.2,0.1,0.5,0.4c0.2,0.2,0.2,0.3,0.3,0.5c0.1,0.3,0,0.6-0.1,1c-0.4,1.1-2.5,3.8-4.7,5.9
		c-2.4,2.4-6,5-9.3,6.9c-0.9,0.5-2.4,1.3-3.1,1.5l0,0l-1.7,0.7c-0.2,0.1-0.4,0.1-0.7,0.2l-0.2,0.1c-0.3,0.1-0.7,0.2-0.8,0.3
		c-3.9,1.2-6.9,1.3-8.3,0.2l1.3-1.5c0.1,0.1,0.4,0.2,0.7,0.3c0.3,0.1,1,0.1,1.4,0.1c1.4-0.1,3.4-0.6,5.6-1.4
		c0.4-0.2,0.8-0.3,0.8-0.3l3.9-1.9c1.7-0.9,3.4-2,5-3.2c2.8-2.1,5-4.2,6.9-6.6c0.1-0.1,0.2-0.3,0.3-0.4L51.9,31.1z M50.3,22.6
		c0.4,0.2,0.6,0.5,0.7,0.9c0.1,0.4,0.1,0.8,0,1.2c-0.2,0.7-0.8,1.8-1.7,2.9c-1.1,1.3-2.2,2.4-4.4,4.2c-3.6,2.9-7.6,5.7-11,7.8
		c-2.6,1.5-5.3,2.8-7.7,3.7l-0.4,0.2l-2.8,0.9c-0.4,0.1-1,0.3-1.4,0.4c-1.8,0.4-3.2,0.5-4.2,0.2c-0.6-0.2-1.1-0.4-1.4-0.8
		c-0.4-0.4-0.6-0.9-0.8-1.6l2-0.3c0.1,0.3,0.2,0.5,0.3,0.7c0.1,0.2,0.4,0.2,0.6,0.3c0.4,0.1,1.2,0.1,1.9-0.1
		c0.9-0.2,2.7-0.7,3.9-1.1l3.7-1.5c4.4-2,8.8-4.8,14.3-9c1.1-0.9,3.6-2.9,4.2-3.5c1.5-1.5,2.6-2.8,3-3.7c0-0.1,0.1-0.2,0.1-0.3
		L50.3,22.6z M41.5,14c0.4,0.1,0.7,0.4,1,0.7c0.3,0.5,0.3,1,0.1,1.7c-0.2,0.6-0.6,1.3-1.2,2.2c-0.7,1-1.6,2-2.8,3.1
		c-1.5,1.4-3.6,3.2-5.6,4.6c-3.6,2.6-7.6,4.8-10.9,6.1l-0.5,0.2L20,33.2l-1.6,0.4c-0.8,0.1-1.6,0.1-2.1,0c-0.6-0.1-1-0.4-1.4-0.8
		c-0.5-0.5-0.6-1.2-0.6-2.2l1.7,0.5c0,0.3,0,0.4,0.1,0.6c0.1,0.1,0.1,0.1,0.2,0.1c0.2,0.1,0.7,0.1,1,0.1c0.2,0,0.6-0.1,1-0.2l0.1,0
		c0.5-0.1,1-0.2,1.1-0.2l0,0l0,0l4.5-1.9l0,0c0.1,0,0.7-0.4,1-0.5c2.3-1.2,4.5-2.6,6.9-4.4c0.7-0.5,3.6-2.9,4.1-3.5
		c1.9-1.8,3.2-3.2,4-4.5c0.2-0.3,0.3-0.5,0.4-0.7L41.5,14z"/>
</g>
</svg>
