<svg id="Ebene_1" xmlns="http://www.w3.org/2000/svg" version="1.1" viewBox="0 0 64 64">
  <!-- Generator: Adobe Illustrator 29.1.0, SVG Export Plug-In . SVG Version: 2.1.0 Build 142)  -->
  <defs>
    <style>
      .st0 {
        fill: #e6007e;
      }
    </style>
  </defs>
  <path class="st0" d="M39.3,42.8c-1.3,0-2.1-.7-2.7-1.7l-2.4,1.3c.8,1.5,2.5,2.8,5.1,2.8s4.7-1.4,4.7-3.9-1.3-3.4-3.7-4.4l-.7-.3c-1.3-.5-1.8-.9-1.8-1.7s.6-1.2,1.4-1.2,1.3.3,1.8,1.2l2.1-1.3c-.8-1.6-2.1-2.2-3.9-2.2s-4.1,1.6-4.1,3.7,1.4,3.3,3.4,4.2l.7.3c1.2.5,2,.8,2,1.8s-.7,1.4-1.9,1.4Z"/>
  <path class="st0" d="M28.6,45.1c2.5,0,4.2-1.3,4.2-4.2v-9.7c.1,0-2.7,0-2.7,0v9.5c0,1.5-.6,1.8-1.5,1.8s-1.4-.6-1.8-1.4l-2.4,1.4c.7,1.4,2,2.6,4.2,2.6Z"/>
  <path class="st0" d="M32-.4C14.3-.4,0,13.9,0,31.6s14.3,32,32,32,32-14.3,32-32S49.7-.4,32-.4ZM46.5,47.5h-29.8v-29.8h29.8v29.8Z"/>
</svg>
