<?xml version="1.0" encoding="UTF-8"?>
<svg id="Ebene_1" xmlns="http://www.w3.org/2000/svg" version="1.1" viewBox="0 0 64 64">
  <!-- Generator: Adobe Illustrator 29.1.0, SVG Export Plug-In . SVG Version: 2.1.0 Build 142)  -->
  <defs>
    <style>
      .st0 {
        fill: #970060;
      }

      .st1 {
        fill: #e6007e;
      }
    </style>
  </defs>
  <g id="icon">
    <path class="st1" d="M31.8,36v5.7l-4-1-.2-2.8h-3.5l.4,5.5,7.3,2v3.7l9.4-2.6,2.2-24.6h-11.6v3.5h-8.8l.9,10.6h7.9ZM31.8,28.9v3.6h-4.7l-.3-3.6h5Z"/>
    <path class="st1" d="M31.9,0C14.2,0-.2,14.4-.2,32.1s14.4,32.1,32.1,32.1,32.1-14.4,32.1-32.1S49.6,0,31.9,0ZM39.1,11.7h1.8v3.6h2.5v1.8h-4.3v-5.4ZM32.1,11.7h1.9l1.2,1.9,1.2-1.9h1.9v5.4h-1.8v-2.6l-1.3,1.9-1.3-1.9v2.6h-1.9v-5.4ZM26.3,11.6h5v1.8h-1.6v3.6h-1.8v-3.6h-1.6v-1.8ZM20.3,11.7h1.8v1.8h1.7v-1.8h1.8v5.4h-1.8v-1.8h-1.7v1.8h-1.8v-5.4ZM43.4,48.3l-11.6,3.2-11.5-3.2-2.6-28.8h28.3l-2.6,28.8Z"/>
    <path id="_x35_" class="st0" d="M40.7,25.4h-8.8v3.5h8.5M40,32.6h-8.3v3.5h4.3l-.4,4.6-3.9,1v3.7l7.2-2"/>
  </g>
</svg>