<svg id="Ebene_1" xmlns="http://www.w3.org/2000/svg" version="1.1" viewBox="0 0 64 64">
  <path d="M36.2,49.4c.1.1.3.2.5.3h0c-.2,0-.3-.2-.5-.3Z"/>
  <path d="M31.8,0C14,0-.4,14.4-.4,32.2s14.4,32.2,32.2,32.2,32.2-14.4,32.2-32.2S49.6,0,31.8,0ZM47.8,44c0,0,0,.1,0,.2,0,0,0,.1,0,.1-.2.7-.6,1.4-1.3,1.7l-7.6,3.7c-.2,0-.4.1-.6.2,0,0-.2,0-.3,0-.1,0-.2,0-.3,0-.1,0-.2,0-.3,0,0,0-.1,0-.2,0-.1,0-.3,0-.4-.2h0c-.2,0-.3-.2-.5-.3l-14.6-13.4-6.4,4.9c-.6.4-1.5.4-2-.1l-2-1.9c-.7-.6-.7-1.7,0-2.3l5.5-5-5.5-5c-.7-.6-.7-1.7,0-2.3l2-1.9c.5-.5,1.4-.5,2-.1l6.4,4.8,14.6-13.3c.7-.7,1.7-.9,2.6-.4l7.6,3.7c.8.4,1.3,1.2,1.3,2h0v24.9c0,.2,0,.4,0,.6,0,0,0-.1,0-.2,0,0,0,0,0-.1,0-.1,0-.2,0-.3h0Z"/>
  <polygon points="38.5 23.1 27.4 31.6 38.5 39.9 38.5 23.1"/>
</svg>