<svg version="1.1" id="Ebene_1" xmlns="http://www.w3.org/2000/svg" xmlns:xlink="http://www.w3.org/1999/xlink" x="0px" y="0px"
	 viewBox="0 0 64 64" style="enable-background:new 0 0 64 64;" xml:space="preserve">
<path d="M31.8,0L31.8,0C14,0-0.4,14.4-0.4,32.2v0C-0.4,50,14,64.4,31.8,64.4h0C49.6,64.4,64,50,64,32.2v0
	C64,14.4,49.6,0,31.8,0z M46.9,22.4c-0.5,0.5-1.1,0.7-1.8,0.7c-5.4,0-7.4,3.3-10.2,8.6L33.2,35c-2.6,5.1-5.9,11.4-14.7,11.4
	c-0.3,0-0.7-0.1-1-0.2c-0.3-0.1-0.6-0.3-0.8-0.5c-0.2-0.2-0.4-0.5-0.6-0.8c-0.1-0.3-0.2-0.6-0.2-1c0-0.7,0.3-1.3,0.7-1.8
	c0.5-0.5,1.1-0.7,1.8-0.7c5.4,0,7.4-3.3,10.2-8.6l1.7-3.2c2.6-5.1,5.9-11.4,14.7-11.4h0c0.7,0,1.3,0.3,1.8,0.7
	c0.5,0.5,0.7,1.1,0.7,1.8C47.6,21.3,47.4,21.9,46.9,22.4z"/>
</svg>
