<?xml version="1.0" encoding="utf-8"?>
<!-- Generator: Adobe Illustrator 26.3.1, SVG Export Plug-In . SVG Version: 6.00 Build 0)  -->
<svg version="1.1" id="Ebene_1" xmlns="http://www.w3.org/2000/svg" xmlns:xlink="http://www.w3.org/1999/xlink" x="0px" y="0px"
	 viewBox="0 0 64 64" style="enable-background:new 0 0 64 64;" xml:space="preserve">
<style type="text/css">
	.st0{fill:#E6007E;}
	.st1{fill-rule:evenodd;clip-rule:evenodd;fill:#FFFFFF;filter:url(#Adobe_OpacityMaskFilter);}
	.st2{mask:url(#mask0_00000122695828812283629790000000758772561438186424_);}
	.st3{fill:#FFFFFF;}
	.st4{fill:#970060;}
	.st5{fill:#FF7CC4;}
</style>
<path class="st0" d="M31.8,0L31.8,0C14,0-0.4,14.4-0.4,32.2v0C-0.4,50,14,64.4,31.8,64.4h0C49.6,64.4,64,50,64,32.2v0
	C64,14.4,49.6,0,31.8,0z"/>
<defs>
	<filter id="Adobe_OpacityMaskFilter" filterUnits="userSpaceOnUse" x="10.7" y="13.2" width="37" height="36.8">
		<feColorMatrix  type="matrix" values="1 0 0 0 0  0 1 0 0 0  0 0 1 0 0  0 0 0 1 0"/>
	</filter>
</defs>
<mask maskUnits="userSpaceOnUse" x="10.7" y="13.2" width="37" height="36.8" id="mask0_00000122695828812283629790000000758772561438186424_">
	<path class="st1" d="M36.9,49.8c0.6,0.2,1.2,0.2,1.8-0.1l7.6-3.7c0.8-0.4,1.3-1.2,1.3-2.1V19.1c0-0.9-0.5-1.7-1.3-2.1l-7.6-3.7
		c-0.8-0.4-1.7-0.3-2.4,0.2c-0.1,0.1-0.2,0.1-0.3,0.2L21.5,27.2l-6.4-4.8c-0.6-0.4-1.4-0.4-2,0.1l-2,1.9c-0.7,0.6-0.7,1.7,0,2.3
		l5.5,5l-5.5,5c-0.7,0.6-0.7,1.7,0,2.3l2,1.9c0.5,0.5,1.4,0.5,2,0.1l6.4-4.8l14.6,13.3C36.4,49.6,36.6,49.7,36.9,49.8z M38.5,23.2
		l-11.1,8.4L38.5,40V23.2z"/>
</mask>
<g class="st2">
	<path class="st3" d="M38.8,49.8c-0.9,0.4-1.9,0.2-2.6-0.4c0.9,0.9,2.3,0.2,2.3-1V14.8c0-1.2-1.5-1.8-2.3-1c0.7-0.7,1.7-0.9,2.6-0.4
		l7.6,3.7c0.8,0.4,1.3,1.2,1.3,2.1V44c0,0.9-0.5,1.7-1.3,2.1L38.8,49.8z"/>
	<path class="st4" d="M46.4,17.1l-7.6-3.7c-0.9-0.4-1.9-0.2-2.6,0.4l-25,22.8c-0.7,0.6-0.7,1.7,0,2.3l2,1.9c0.5,0.5,1.4,0.5,2,0.1
		L45.2,18c1-0.8,2.5,0,2.5,1.2v-0.1C47.7,18.3,47.2,17.5,46.4,17.1z"/>
	<path class="st5" d="M46.4,46.1l-7.6,3.7c-0.9,0.4-1.9,0.2-2.6-0.4l-25-22.8c-0.7-0.6-0.7-1.7,0-2.3l2-1.9c0.5-0.5,1.4-0.5,2-0.1
		l30.1,22.8c1,0.8,2.5,0,2.5-1.2V44C47.7,44.9,47.2,45.7,46.4,46.1z"/>
</g>
</svg>
