<?xml version="1.0" encoding="utf-8"?>
<!-- Generator: Adobe Illustrator 26.3.1, SVG Export Plug-In . SVG Version: 6.00 Build 0)  -->
<svg version="1.1" id="Ebene_1" xmlns="http://www.w3.org/2000/svg" xmlns:xlink="http://www.w3.org/1999/xlink" x="0px" y="0px"
	 viewBox="0 0 64 64" style="enable-background:new 0 0 64 64;" xml:space="preserve">
<style type="text/css">
	.st0{fill:#E6007E;}
	.st1{fill:#970060;}
	.st2{fill:#FCFDFB;}
</style>
<circle class="st0" cx="32" cy="32" r="32"/>
<g>
	<path class="st1" d="M23.6,37.9c0-3.5,0-6.9,0-10.4c0-0.2,0.1-0.6-0.2-0.6c-0.3,0-0.2,0.4-0.2,0.6c0,1.7,0,3.4,0,5.1
		c0,2.2-1.4,3.7-3.7,3.7c-0.9,0-1.9,0.1-2.8-0.1C15.1,36,14,34.7,14,33c0-1.2,0-2.3,0-3.5c-0.1-0.7,0.6-1.3,1.3-1.4
		c0.4,0,0.9,0,1.3,0c0.9,0,1.4,0.5,1.5,1.4c0,0.7,0,1.4,0,2.1c0,0.5,0.2,0.8,0.6,0.8c0.4,0,0.6-0.3,0.6-0.8c0-1.9,0.1-3.8,0-5.7
		c-0.1-2,1.9-3.6,3.5-3.5c1.1,0.1,1,0,1.2-1.1c0.3-2,1.1-3.8,2.5-5.4c1.5-1.8,3.4-3,5.7-3.5c3.5-0.7,6.8-0.2,9.6,2.3
		c0.2,0.2,0.4,0.2,0.7,0.2c1.1-0.1,2.2-0.1,3.4-0.1c1.2,0,2.3,0.3,3.2,1.2c0.8,0.8,1.2,1.7,1.2,2.8c0,0.2,0,0.4,0,0.6
		c0,3.3-0.1,6.6,0,9.8c0.1,2.2-1.9,4.2-4.1,4c-0.2,0-0.4,0-0.6,0c-0.2,0-0.3,0-0.4,0.2c0,0.2,0.1,0.3,0.3,0.3
		c0.7,0.1,1.2,0.5,1.7,1.1c0.5,0.5,0.7,1.1,0.8,1.9c0,0.4,0.1,0.9,0.1,1.3c0,0.2,0.1,0.4,0.2,0.5c0.2,0.3,0.3,0.6,0.2,0.9
		c-0.1,0.6-0.3,1.1-0.5,1.7c-0.1,0.2-0.2,0.5-0.5,0.4c-0.3,0-0.4-0.2-0.5-0.4c-0.2-0.5-0.4-1-0.6-1.5c-0.1-0.5,0-0.9,0.4-1.3
		c0.1-0.1,0.2-0.2,0.2-0.3c0.4-1.1-0.3-2.7-1.3-3.3c-0.5-0.3-0.7-0.1-0.7,0.5c0,4.2,0,8.3,0,12.5c0,1.5-0.6,2.5-1.8,3.3
		c-0.4,0.2-0.9,0.3-1.3,0.3c-0.8,0-1.5,0-2.3,0c-1.8,0-3.2-1.5-3.3-3.3c0-0.9,0-1.7,0-2.6c0-0.8-0.3-1.4-1-1.7
		c-0.7-0.3-1.4-0.3-2,0.1c-0.6,0.4-0.7,1-0.7,1.6c0,0.8,0,1.6,0,2.4c0,1.3-0.6,2.3-1.7,3c-0.3,0.2-0.6,0.3-0.9,0.3
		c-1.2,0.2-2.4,0.2-3.5,0c-1.3-0.2-2.1-1.1-2.5-2.4c-0.2-0.5-0.2-1.1-0.2-1.6C23.6,44.3,23.6,41.1,23.6,37.9z M24.6,37.3
		C24.6,37.3,24.6,37.3,24.6,37.3c0,3.6,0,7.3,0,10.9c0,1.4,1.1,2.4,2.5,2.5c0.6,0,1.2,0,1.8,0c1.4,0,2.5-1.1,2.5-2.5
		c0-0.8,0-1.6,0-2.4c0-0.3,0-0.5,0.1-0.8c0.4-1.5,1.7-2.3,3.2-2.1c1.4,0.2,2.4,1.3,2.4,2.8c0,0.9,0,1.8,0,2.6c0,1.3,1.1,2.4,2.4,2.4
		c0.6,0,1.2,0,1.8,0c1.6,0,2.6-1,2.6-2.7c0-4.4,0-8.8,0-13.1c0-0.4,0.2-1-0.1-1.3c-0.3-0.3-0.8-0.1-1.3-0.1c-3.5,0-6.4-2.8-6.5-6.3
		c0-0.3,0-0.5,0.4-0.5c0.3,0,0.6-0.1,0.6,0.5c0.2,3,2.3,5.1,5.2,5.3c1.2,0.1,2.4,0,3.6,0c1.8,0,3.1-1.3,3.1-3.1c0-3.4,0-6.8,0-10.2
		c0-1.8-1.2-3.1-3-3.1c-1.2,0-2.3,0-3.5,0c-3,0.1-5.4,2.5-5.4,5.4c0,0.5-0.2,0.5-0.5,0.5c-0.4,0-0.4-0.1-0.4-0.5
		c0-2.5,1.7-4.9,4-5.9c0.1-0.1,0.4-0.1,0.4-0.2c0-0.2-0.2-0.3-0.3-0.4c-1.4-1.1-3.1-1.6-4.9-1.7c-3.1-0.2-5.8,0.8-8,3.1
		c-1.8,1.9-2.6,4.1-2.7,6.6c0,0.4-0.1,0.5-0.5,0.5c-0.5,0-1,0-1.5,0c-1.5,0-2.5,1-2.5,2.6c0,1.8,0,3.7,0,5.5c0,0.4,0,0.9-0.3,1.2
		c-0.4,0.5-1,0.7-1.6,0.6c-0.6-0.1-1-0.5-1.1-1.1c-0.2-0.6-0.1-1.3-0.1-1.9c0-1.5,0.1-1.4-1.4-1.4c-0.4,0-0.6,0.2-0.6,0.6
		c0,1,0,2,0,3.1c-0.1,1.5,1.2,2.6,2.5,2.6c0.7,0,1.5,0,2.2,0c1.4,0,2.5-1.1,2.5-2.5c0-1.4,0-2.8,0-4.3c0-0.4,0-0.9,0-1.3
		c0-0.9,0.5-1.4,1.4-1.4c0.2,0,0.3,0,0.5,0c0.5-0.1,0.6,0.1,0.6,0.6C24.6,30,24.6,33.7,24.6,37.3z M47.3,40.8
		c0.2-0.4,0.3-0.8,0.4-1.2c0-0.2,0-0.3-0.2-0.4c-0.2-0.1-0.3-0.1-0.5,0c-0.1,0.1-0.2,0.2-0.2,0.4C47,40,47.1,40.3,47.3,40.8z"/>
	<path class="st2" d="M24.6,37.3c0-3.6,0-7.3,0-10.9c0-0.4-0.1-0.6-0.6-0.6c-0.2,0-0.3,0-0.5,0c-0.9,0-1.4,0.5-1.4,1.4
		c0,0.4,0,0.9,0,1.3c0,1.4,0,2.8,0,4.3c0,1.4-1,2.5-2.5,2.5c-0.7,0-1.5,0-2.2,0c-1.4,0-2.6-1.1-2.5-2.6c0-1,0-2,0-3.1
		c0-0.5,0.2-0.6,0.6-0.6c1.6,0,1.4-0.1,1.4,1.4c0,0.6-0.1,1.3,0.1,1.9c0.2,0.6,0.5,1,1.1,1.1c0.6,0.1,1.2,0,1.6-0.6
		c0.3-0.4,0.3-0.8,0.3-1.2c0-1.8,0-3.7,0-5.5c0-1.6,1-2.6,2.5-2.6c0.5,0,1,0,1.5,0c0.3,0,0.5-0.1,0.5-0.5c0-2.5,0.9-4.8,2.7-6.6
		c2.2-2.3,4.9-3.2,8-3.1c1.8,0.1,3.4,0.6,4.9,1.7c0.1,0.1,0.4,0.2,0.3,0.4c0,0.2-0.3,0.2-0.4,0.2c-2.4,1-4,3.4-4,5.9
		c0,0.3,0.1,0.5,0.4,0.5c0.3,0,0.5,0,0.5-0.5c0.1-3,2.5-5.4,5.4-5.4c1.2,0,2.3,0,3.5,0c1.8,0,3,1.3,3,3.1c0,3.4,0,6.8,0,10.2
		c0,1.8-1.3,3.1-3.1,3.1c-1.2,0-2.4,0.1-3.6,0c-2.9-0.2-5-2.3-5.2-5.3c0-0.5-0.3-0.4-0.6-0.5c-0.4,0-0.4,0.2-0.4,0.5
		c0.2,3.5,3,6.2,6.5,6.3c0.4,0,1-0.2,1.3,0.1c0.3,0.3,0.1,0.8,0.1,1.3c0,4.4,0,8.8,0,13.1c0,1.6-1,2.6-2.6,2.7c-0.6,0-1.2,0-1.8,0
		c-1.3,0-2.4-1.1-2.4-2.4c0-0.9,0-1.8,0-2.6c0-1.4-1-2.6-2.4-2.8c-1.5-0.2-2.8,0.6-3.2,2.1c-0.1,0.2-0.1,0.5-0.1,0.8
		c0,0.8,0,1.6,0,2.4c0,1.5-1.1,2.5-2.5,2.5c-0.6,0-1.2,0-1.8,0c-1.4,0-2.5-1.1-2.5-2.5C24.6,44.6,24.6,40.9,24.6,37.3
		C24.6,37.3,24.6,37.3,24.6,37.3z M45.1,17c-0.3,0-0.7,0-0.7,0.4c0,0.4,0.2,0.5,0.6,0.6c0.3,0,0.6,0.1,0.8,0.1
		c0.7,0.1,1.2,0.6,1.3,1.3c0,0.2,0.1,0.5,0.1,0.7c0.1,0.3,0.3,0.3,0.5,0.3c0.2,0,0.4-0.1,0.4-0.4c0.2-0.9-0.5-2.2-1.2-2.6
		C46.4,17.2,45.7,17,45.1,17z M28.4,21.8c0,0.7,0.5,1.2,1.1,1.2c0.7,0,1.2-0.5,1.2-1.2c0-0.7-0.5-1.2-1.2-1.2
		C29,20.6,28.4,21.1,28.4,21.8z"/>
	<path class="st2" d="M47.3,40.8c-0.2-0.4-0.3-0.8-0.4-1.2c-0.1-0.2,0-0.3,0.2-0.4c0.2-0.1,0.3-0.1,0.5,0c0.1,0.1,0.2,0.2,0.2,0.4
		C47.6,39.9,47.5,40.3,47.3,40.8z"/>
	<path class="st1" d="M45.1,17c0.6,0,1.3,0.2,1.8,0.5c0.8,0.4,1.4,1.7,1.2,2.6c0,0.2-0.2,0.4-0.4,0.4c-0.3,0-0.4-0.1-0.5-0.3
		c-0.1-0.2-0.1-0.5-0.1-0.7c-0.1-0.7-0.6-1.1-1.3-1.3C45.6,18.1,45.3,18,45,18c-0.4,0-0.6-0.2-0.6-0.6C44.4,17,44.7,17,45.1,17z"/>
	<path class="st1" d="M28.4,21.8c0-0.7,0.6-1.2,1.2-1.2c0.7,0,1.2,0.6,1.2,1.2c0,0.7-0.5,1.2-1.2,1.2C28.9,23,28.4,22.5,28.4,21.8z"
		/>
</g>
</svg>
