<svg id="Ebene_1" xmlns="http://www.w3.org/2000/svg" version="1.1" viewBox="0 0 64 64">
  <path d="M32-.4C14.3-.4,0,13.9,0,31.6s14.3,32,32,32,32-14.3,32-32S49.7-.4,32-.4ZM32,53.1c-11.6,0-21.1-9.6-21.1-21.2s9.5-21.1,21.1-21.1,21.1,9.6,21.1,21.2-9.5,21.1-21.1,21.1Z"/>
  <path d="M32,11.8c-11.1,0-20.2,9-20.2,20.1s9.1,20.2,20.2,20.2,20.1-9,20.2-20.1c0-11.2-9.1-20.2-20.2-20.2ZM31.9,13.8c4.7,0,9,1.9,12.2,4.8h-.2c-1.7,0-3,1.5-3,3.2s.9,2.7,1.8,4.2c.7,1.2,1.5,2.8,1.5,5s-.6,3.4-1.3,6l-1.8,6-6.7-19.5c1.1,0,2.1-.2,2.1-.2,1,0,.9-1.6,0-1.5,0,0-2.9.2-4.8.2s-4.8-.2-4.8-.2c-1,0-1.1,1.4,0,1.5,0,0,.9.1,1.9.2l2.8,7.7-4,11.9-6.6-19.6c1.1,0,2.1-.2,2.1-.2,1,0,.9-1.6-.1-1.5,0,0-2.9.2-4.8.2h-1.2c3.2-5,8.8-8.2,15.1-8.2ZM13.9,32c0-2.7.5-5.1,1.6-7.4l8.6,23.7c-6-2.9-10.2-9.1-10.2-16.3ZM32,50.1c-1.8,0-3.5-.2-5.1-.7l5.4-15.8,5.6,15.2c0,.1,0,.2,0,.3-1.9.6-3.9,1-6,1ZM41.1,47.7l5.5-16c1-2.6,1.4-4.7,1.4-6.5s0-1.3,0-1.9c1.4,2.5,2.2,5.5,2.2,8.7,0,6.7-3.6,12.6-9,15.7Z"/>
</svg>