<?xml version="1.0" encoding="utf-8"?>
<!-- Generator: Adobe Illustrator 26.3.1, SVG Export Plug-In . SVG Version: 6.00 Build 0)  -->
<svg version="1.1" id="Ebene_1" xmlns="http://www.w3.org/2000/svg" xmlns:xlink="http://www.w3.org/1999/xlink" x="0px" y="0px"
	 viewBox="0 0 64 64" style="enable-background:new 0 0 64 64;" xml:space="preserve">
<style type="text/css">
	.st0{fill:white;}
</style>
<g>
	<path class="st0" d="M32.2,24.7c-0.3,0-0.5,0.2-0.6,0.3c-0.1,0.3-0.1,0.8-0.1,1.5v9.1c0,0.4,0.1,0.9,0.2,1.1
		c0.1,0.3,0.3,0.3,0.6,0.3c0.5,0,0.7-0.6,0.7-1.8v-9.1c0-0.5,0-0.9-0.1-1.1C32.8,24.8,32.5,24.7,32.2,24.7z"/>
	<path class="st0" d="M32,0C14.3,0,0,14.3,0,32s14.3,32,32,32s32-14.3,32-32S49.7,0,32,0z M25,37.6c-0.2,0.4-0.4,0.9-0.8,1.2
		c-0.3,0.3-0.9,0.7-1.5,0.8c-0.6,0.2-1.4,0.3-2.2,0.3c-0.9,0-1.7-0.1-2.3-0.3s-1.1-0.4-1.5-0.9c-0.3-0.4-0.6-0.9-0.8-1.5
		c-0.2-0.5-0.3-1.5-0.3-2.7v-0.7h3.9v1.6c0,0.6,0,1,0.1,1.2c0.1,0.3,0.3,0.3,0.6,0.3c0.5,0,0.9-0.5,0.9-1.5c0-0.6,0-1.1-0.1-1.4
		c-0.1-0.3-0.3-0.6-0.6-0.9c-1.6-1.1-2.7-2-3.3-2.6c-1-0.9-1.5-2.3-1.5-4.1c0-0.7,0-1.2,0.1-1.7s0.3-0.9,0.5-1.4
		c0.3-0.5,0.9-0.9,1.5-1.1s1.5-0.3,2.5-0.3s1.8,0.1,2.3,0.2c0.5,0.1,1,0.3,1.5,0.8c0.3,0.4,0.6,0.9,0.8,1.5c0.1,0.3,0.1,1,0.1,2.1
		v0.3H21v-0.8c0-0.4,0-0.8,0-0.9c-0.1-0.4-0.3-0.6-0.6-0.6c-0.5,0-0.8,0.4-0.8,1.4c0,0.7,0.1,1.2,0.3,1.5c0.3,0.3,0.9,0.9,2.1,1.6
		c1.3,0.9,2.1,1.7,2.6,2.7c0.3,0.8,0.5,1.9,0.5,3.4C25.3,36.4,25.2,37.1,25,37.6z M37.6,33.5c0,1.5-0.1,2.4-0.2,3
		c-0.3,1.2-1.1,2-2.7,2.3c0,0.4,0.1,0.7,0.3,0.8c0.1,0.1,0.4,0.1,0.9,0.1h1.5v2.1H34c-1.2,0-2-0.2-2.2-0.5c-0.3-0.3-0.3-0.8-0.3-1.6
		c-0.4,0-0.9-0.1-1.3-0.2c-0.4-0.1-0.9-0.3-1.2-0.6c-0.9-0.6-1.5-1.4-1.7-2.3C27.1,36,27,34.9,27,33.3v-5.5c0-0.8,0-1.4,0.1-1.9
		c0-0.5,0.2-0.9,0.3-1.4c0.3-0.9,0.9-1.5,1.7-2c0.8-0.4,1.8-0.6,3-0.6c1.5,0,2.6,0.3,3.4,0.7c0.9,0.4,1.5,1.2,1.8,2.2
		c0.1,0.3,0.2,0.9,0.2,1.5c0,0.6,0,1,0,1.4L37.6,33.5L37.6,33.5z M48.1,39.7L48.1,39.7h-8.8V22.1H44v14.2h4.1V39.7z"/>
</g>
</svg>
