<?xml version="1.0" encoding="utf-8"?>
<!-- Generator: Adobe Illustrator 26.3.1, SVG Export Plug-In . SVG Version: 6.00 Build 0)  -->
<svg version="1.1" id="Ebene_1" xmlns="http://www.w3.org/2000/svg" xmlns:xlink="http://www.w3.org/1999/xlink" x="0px" y="0px"
	 viewBox="0 0 64 64" style="enable-background:new 0 0 64 64;" xml:space="preserve">
<style type="text/css">
	.st0{fill:#E6007E;}
</style>
<g>
	<path class="st0" d="M40.3,33.2c-0.6-0.4-1.3-0.7-2-0.9c-0.3-0.2-0.7-0.3-0.9-0.4c-0.2-0.1-0.3-0.2-0.4-0.3
		c-0.1-0.1-0.2-0.2-0.2-0.3c0-0.1,0.1-0.2,0.1-0.3c0.1-0.1,0.2-0.2,0.4-0.2c0.2-0.1,0.5-0.1,0.8-0.1c0.4,0,0.9,0.1,1.4,0.2
		c0.4,0.1,0.8,0.2,1.2,0.4c0.1,0.1,0.1,0.1,0.4-0.1c0-0.1,0.1-0.1,0.1-0.2v-2.1c0-0.1-0.1-0.1-0.1-0.2c-0.1-0.1-0.1-0.1-0.2-0.1
		c-0.3-0.1-0.7-0.2-1.1-0.3c-0.5-0.1-1-0.1-1.6-0.1c-0.9,0-1.6,0.2-2.2,0.4c-0.6,0.2-1,0.6-1.4,1.1c-0.3,0.5-0.4,1-0.4,1.5
		c0,0.4,0.1,0.9,0.3,1.3c0.3,0.4,0.6,0.8,1,1.1c0.5,0.4,1.1,0.7,1.8,0.9c0.7,0.3,1,0.4,1.2,0.6c0.2,0.2,0.3,0.3,0.3,0.5
		c0,0.3-0.1,0.4-0.3,0.5c-0.2,0.2-0.6,0.2-1,0.2s-1-0.1-1.5-0.2c-0.5-0.1-1.1-0.3-1.6-0.6c0,0-0.1,0-0.1,0s-0.1,0.1-0.1,0.1V38
		c0,0.1,0.1,0.2,0.2,0.2c0.4,0.2,0.9,0.3,1.3,0.4c0.6,0.1,1.1,0.2,1.7,0.2c0.9,0,1.7-0.1,2.3-0.4c0.5-0.2,1.1-0.6,1.4-1.1
		c0.3-0.5,0.5-1.1,0.5-1.7c0-0.4-0.1-0.9-0.3-1.3C41,33.8,40.7,33.5,40.3,33.2z"/>
	<path class="st0" d="M31.5,26.5c-0.5-0.4-1.1-0.8-1.7-1C29,25.2,28.1,25,27.1,25c-0.4,0-0.8,0-1.1,0c-0.4,0.1-0.8,0.1-1.1,0.1
		c-0.4,0.1-0.7,0.1-1,0.1c-0.3,0-0.5,0-0.7,0c-0.1,0-0.2,0.1-0.2,0.2v13.1c0,0.1,0.1,0.2,0.1,0h2.4h0.1c0.1-0.1,0.2-0.1,0.2-0.2
		v-4.1c0.3,0,0.5,0,0.6,0c0.1,0,0.3,0,0.6,0c1.1,0,2-0.1,2.9-0.4c0.8-0.3,1.5-0.8,2.1-1.5c0.5-0.7,0.8-1.6,0.8-2.7
		c0-0.5-0.1-1.1-0.3-1.6C32.2,27.4,31.9,26.8,31.5,26.5z M29.5,31.1c-0.3,0.3-0.7,0.5-1,0.7C28,31.9,27.5,32,27,32h-0.7
		c-0.2,0-0.3-0.1-0.5-0.1v-4.2c0.1,0,0.2-0.1,0.4,0.1c0.3,0,0.5,0,0.9,0c0.5-0.1,1,0,1.5,0.2c0.4,0.1,0.7,0.4,0.9,0.7
		c0.2,0.4,0.3,0.8,0.3,1.1C29.8,30.4,29.7,30.8,29.5,31.1z"/>
	<path class="st0" d="M31.7,0.5C14.2,0.5,0,14.7,0,32.3S14.2,64,31.7,64s31.7-14.2,31.7-31.7S49.3,0.5,31.7,0.5z M46.8,42
		c0,3-2.4,5.4-5.4,5.4H21.7c-3,0-5.4-2.4-5.4-5.4V23.1c0-3,2.4-5.4,5.4-5.4h19.6c3,0,5.4,2.4,5.4,5.4V42z"/>
</g>
</svg>
