<?xml version="1.0" encoding="utf-8"?>
<!-- Generator: Adobe Illustrator 26.3.1, SVG Export Plug-In . SVG Version: 6.00 Build 0)  -->
<svg version="1.1" id="Ebene_1" xmlns="http://www.w3.org/2000/svg" xmlns:xlink="http://www.w3.org/1999/xlink" x="0px" y="0px"
	 viewBox="0 0 64 64" style="enable-background:new 0 0 64 64;" xml:space="preserve">
<style type="text/css">
	.st0{fill:#E6007E;}
</style>
<g>
	<path class="st0" d="M28.7,25h-3.2h-0.1c-0.1,0-0.1,0.1-0.1,0.2c0,0.3-0.1,0.6-0.1,0.8c-0.1,0.2-0.1,0.2-0.2,0.4L21,37.9
		c-0.1,0.1,0,0.2,0.2,0.2h2.3c0.1,0,0.2-0.1,0.2-0.2l1-3h4.7l1,3.1c0,0.1,0.1,0.2,0.2,0.2h2.7c0.2,0,0.2-0.1,0.2-0.2l-4.6-12.8
		C28.9,25,28.8,25,28.7,25z M25.4,32.3c0.2-0.5,0.4-1.1,0.5-1.8c0.2-0.6,0.4-1.3,0.6-1.9c0.2-0.5,0.3-1.1,0.4-1.6h0.1
		c0.1,0.4,0.2,0.7,0.3,1c0.1,0.3,0.2,0.7,0.3,1.1c0.2,0.4,0.2,0.8,0.4,1.2c0.1,0.4,0.2,0.8,0.3,1.1c0.1,0.3,0.2,0.7,0.3,0.9H25.4z"
		/>
	<path class="st0" d="M42.2,29.2c-0.3-0.4-0.8-0.8-1.3-1c-0.6-0.3-1.3-0.4-2-0.4c-0.8,0-1.5,0.1-2.1,0.4c-0.6,0.3-1.1,0.7-1.5,1.2
		c-0.4,0.5-0.8,1.2-1,1.8c-0.2,0.7-0.3,1.4-0.3,2c0,0.6,0,1.2,0.2,1.8c0.2,0.6,0.5,1.2,0.9,1.6c0.4,0.5,1,1,1.6,1.2
		c0.6,0.3,1.4,0.4,2.4,0.4c0.6,0,1.2-0.1,1.8-0.2c0.4-0.1,0.9-0.2,1.3-0.4c0.1-0.1,0.1-0.1,0.1-0.1s0.1-0.1,0.1-0.2v-1.9
		c0-0.2-0.1-0.2-0.1-0.1c-0.3,0.1-0.7,0.2-1.1,0.3c-0.4,0.1-0.9,0.2-1.3,0.2c-0.5,0-1.1-0.1-1.6-0.3c-0.4-0.2-0.7-0.4-0.9-0.8
		c-0.2-0.3-0.3-0.7-0.4-1.1h4c0.3,0,1.9,0.1,2,0.1c0.1,0,0.2-0.1,0.2-0.2c0-0.1,0-0.3,0.1-0.5s0.1-0.5,0.1-0.8c0-0.5-0.1-1-0.2-1.5
		C42.8,30.2,42.5,29.7,42.2,29.2z M40.4,31.9c-0.1,0.1-0.2,0.1-0.3,0.1c-0.1,0-0.4,0-0.7,0h-2.6c0.1-0.3,0.2-0.7,0.2-0.9
		c0.3-0.7,1-1,1.7-1c0.7-0.1,1.4,0.4,1.6,1.2c0.1,0.2,0.1,0.3,0.1,0.5V31.9z"/>
	<path class="st0" d="M32,0.3c-17.7,0-32,14.3-32,32c0,17.7,14.3,32,32,32s32-14.3,32-32C64,14.7,49.7,0.3,32,0.3z M47.6,41.4
		c0,3-2.4,5.4-5.4,5.4H22.6c-3,0-5.4-2.4-5.4-5.4V22.6c-0.1-3,2.4-5.4,5.4-5.4h19.6c3,0,5.4,2.4,5.4,5.4V41.4z"/>
</g>
</svg>
