<?xml version="1.0" encoding="utf-8"?>
<!-- Generator: Adobe Illustrator 27.0.1, SVG Export Plug-In . SVG Version: 6.00 Build 0)  -->
<svg version="1.1" id="Ebene_1" xmlns="http://www.w3.org/2000/svg" xmlns:xlink="http://www.w3.org/1999/xlink" x="0px" y="0px"
	 viewBox="0 0 64 64" style="enable-background:new 0 0 64 64;" xml:space="preserve">
<style type="text/css">
	.st0{fill:white;}
	.st1{fill:rgba(255,255,255,0.5);}
	.st2{fill:white}
</style>
<g id="icon">
	<g>
		<polygon class="st0" points="32,32.3 23.9,32.3 24.2,35.9 32,35.9 		"/>
		<polygon class="st0" points="27.9,37.6 26,37.6 24.3,37.6 24.8,43.1 32,45.1 32.1,45.1 32.1,41.4 28.2,40.4 		"/>
		<polygon class="st0" points="32,28.7 32,25.2 23.3,25.2 23.6,28.7 		"/>
	</g>
	<polygon id="dark" class="st1" points="41.3,46.2 43.5,21.7 32,21.7 32,48.7 	"/>
	<polygon id="_x33_" class="st2" points="36.3,35.9 35.9,40.4 32,41.5 32,45.1 39.2,43.1 39.2,42.5 40.1,33.3 40.2,32.3 40.8,25.2 
		32,25.2 32,28.7 36.9,28.7 36.7,32.3 32,32.3 32,35.9 	"/>
	<path class="st0" d="M32,0C14.3,0,0,14.3,0,32s14.3,32,32,32s32-14.3,32-32S49.7,0,32,0z M34.8,15.4h2.5v-0.3h-2.5v-3.5h4.3v1.5
		h-2.5v0.3h2.5V17h-4.3V15.4z M29.7,15.4h2.5v-0.3h-2.5v-3.5H34v1.5h-2.5v0.3H34V17h-4.3V15.4z M24.6,11.6h4.3v1.8h-2.5v1.8h2.5V17
		h-4.3C24.6,17,24.6,11.6,24.6,11.6z M43.5,48L32,51.2L20.6,48L18,19.4h28L43.5,48z"/>
</g>
</svg>
