<?xml version="1.0" standalone="no"?>
<!DOCTYPE svg PUBLIC "-//W3C//DTD SVG 20010904//EN"
 "http://www.w3.org/TR/2001/REC-SVG-20010904/DTD/svg10.dtd">
<svg version="1.0" xmlns="http://www.w3.org/2000/svg"
 width="700.000000pt" height="700.000000pt" viewBox="0 0 700.000000 700.000000"
 preserveAspectRatio="xMidYMid meet">
<metadata>
Created by potrace 1.14, written by Peter Selinger 2001-2017
</metadata>
<g transform="translate(0.000000,700.000000) scale(0.100000,-0.100000)"
fill="#000000" stroke="none">
<path d="M3278 6995 c-1 -1 -42 -5 -89 -9 -47 -4 -95 -8 -105 -10 -10 -2 -41
-7 -69 -10 -557 -73 -1131 -308 -1602 -659 -81 -60 -150 -113 -153 -117 -3 -3
-41 -38 -85 -77 -301 -264 -576 -615 -774 -988 -127 -239 -268 -624 -315 -855
-3 -14 -7 -36 -10 -50 -5 -23 -21 -108 -31 -169 -2 -13 -7 -45 -11 -70 -3 -25
-8 -57 -10 -71 -19 -120 -26 -526 -12 -711 15 -187 53 -417 98 -579 7 -25 14
-54 16 -65 11 -59 113 -347 161 -455 154 -343 299 -578 526 -854 86 -105 262
-287 362 -376 336 -296 724 -527 1150 -682 73 -26 125 -43 270 -84 70 -20 321
-72 381 -79 27 -3 76 -10 109 -15 101 -15 755 -11 870 6 112 16 149 21 185 29
14 3 41 8 60 11 172 31 508 135 647 199 17 8 34 15 38 15 12 0 259 124 345
173 161 93 381 244 495 342 17 14 52 45 79 68 67 56 241 228 302 297 84 95
118 136 139 165 11 15 36 48 56 74 56 71 182 261 209 314 14 26 29 47 33 47
23 0 -8 19 -40 25 -95 18 -190 93 -236 187 -34 69 -42 117 -41 238 1 154 49
264 144 329 71 49 130 63 255 64 97 0 118 -3 175 -26 35 -14 66 -24 68 -22 10
10 75 297 87 385 3 25 8 52 10 60 2 8 7 44 10 80 4 36 9 79 12 95 2 17 6 138
7 270 3 217 -2 348 -19 475 -12 97 -16 126 -20 140 -2 8 -7 35 -10 60 -21 158
-106 459 -190 670 -51 132 -151 342 -210 445 -89 154 -267 413 -341 495 -12
14 -41 48 -64 75 -131 157 -379 385 -573 529 -288 212 -628 387 -975 501 -162
54 -405 113 -532 130 -19 3 -46 7 -60 10 -13 2 -52 7 -86 11 -33 3 -74 8 -90
10 -32 5 -540 14 -546 9z m2107 -1997 c4 -3 6 -125 6 -272 l-1 -266 243 -2
242 -3 0 -285 0 -285 -240 -1 -240 -1 0 -679 0 -679 31 -55 c57 -103 145 -122
325 -73 48 13 103 30 123 38 l36 15 0 -274 c0 -316 13 -279 -120 -333 -140
-58 -245 -77 -420 -77 -215 1 -354 48 -466 159 -80 80 -121 154 -160 290 -44
156 -47 210 -48 972 -1 375 -5 685 -8 689 -4 4 -63 7 -130 8 l-123 1 -3 187
-2 186 27 15 c55 28 179 95 238 129 l59 34 34 114 c18 63 39 138 46 165 15 53
75 263 80 280 4 11 461 13 471 3z m-2990 -502 c113 -19 189 -60 279 -149 47
-47 84 -96 107 -139 46 -91 63 -91 122 0 46 72 117 149 177 193 178 132 522
140 723 18 141 -86 244 -247 293 -457 39 -167 42 -249 43 -1214 l1 -938 -348
0 -348 0 0 788 c0 433 -3 828 -7 877 -21 292 -97 413 -256 408 -74 -3 -145
-50 -184 -121 -29 -53 -62 -168 -73 -252 -4 -30 -9 -68 -11 -85 -4 -22 -14
-1199 -13 -1568 l0 -47 -351 2 -350 3 -3 860 c-2 473 -6 874 -9 890 -4 17 -10
46 -13 65 -34 210 -163 303 -314 227 -70 -36 -135 -138 -155 -244 -45 -244
-48 -305 -49 -1113 l-1 -685 -345 0 -345 0 -1 1323 -2 1322 273 0 272 0 10
-37 c6 -21 23 -95 39 -165 33 -151 48 -165 90 -90 105 186 232 281 428 321 89
18 235 21 321 7z"/>
</g>
</svg>
