<?xml version="1.0" encoding="utf-8"?>
<!-- Generator: Adobe Illustrator 26.5.0, SVG Export Plug-In . SVG Version: 6.00 Build 0)  -->
<svg version="1.1" id="jadore" xmlns="http://www.w3.org/2000/svg" xmlns:xlink="http://www.w3.org/1999/xlink" x="0px" y="0px"
	 viewBox="0 0 300 130" style="enable-background:new 0 0 300 130;" xml:space="preserve">
<style type="text/css">
	.st0{fill:#FFFFFF;}
</style>
<g id="g2493">
	<path id="path2495" class="st0" d="M246.3,77.5c-0.1-0.5-0.1-1,2.6-1.8c2.6-0.8,9-3,12.9-5.1c3.9-2.2,4.5-2.5,5.4-1.9
		s0.6,2.1,0.6,3.1v10.5c1.4-2.3,6.1-10.1,9.8-12.4c2.9-1.8,3.9-2,5.8-2c2.2,0,7.3,1.3,7.5,6.7c0.2,4.2-2.9,5.9-4.9,5.7
		c-1.6-0.2-2.7-1.7-3.7-3.2s-2.5-2.4-4-1.9s-10,6-10.5,13.8c-0.3,5.8,0,23.7,0,23.7c0,2.7,1,3.8,2.3,4.5c1.2,0.7,5.7,0.8,6.9,1
		c1.3,0.2,1.2,0.5,1.2,0.9s0,0.6-1.1,0.6h-29.8c-1,0-1.3-0.2-1.3-0.7c0-0.8,1.2-0.6,2.2-0.8c1-0.1,6,0.3,7.4-2.2
		c1.1-1.7,0.9-4.3,0.9-4.3l-0.1-31.5c0-2.5-0.8-2.9-1.5-3.3s-1.9-0.6-4.3,0.2C248.3,77.7,246.7,78.5,246.3,77.5"/>
	<path id="path2497" class="st0" d="M142.1,77.5c-0.4-0.8,0.3-1.3,2.6-1.9c2.5-0.7,7.9-2.3,12.1-4.7c4.3-2.4,5-2.7,5.9-2.4
		c0.9,0.3,0.8,1.9,0.8,3.2v40.7c0,2.3,0.3,3.2,1.3,4.2s3.6,1.5,7,1.5c1.5,0,2,0.2,2,0.8c0,0.6-0.5,0.6-1.1,0.6h-29.5
		c-0.9,0-1.1-0.4-1.1-0.8c0-0.5,0.4-0.8,1.8-0.8c1.2,0,6.5,0.4,7.7-2.4c0.5-1.1,0.7-2.5,0.7-3.9V79.5c0-2.5-1.9-3.5-4.1-3
		C145.7,77,142.7,78.5,142.1,77.5"/>
	<path id="path2499" class="st0" d="M157.2,49.3c4,0,7.3-3.3,7.3-7.3s-3.3-7.3-7.3-7.3s-7.3,3.2-7.3,7.3S153.2,49.3,157.2,49.3"/>
	<path id="path2501" class="st0" d="M192.7,95.5c1.5,13.2,9.3,23.5,19.1,21.8s14.7-11.1,13.5-26c-1.2-15.2-8.7-22.8-18.8-21.9
		C196,70.4,191.2,82.3,192.7,95.5 M202.4,67.1c12.6-2.4,30.5,0.4,34.6,20.1s-9.5,30.2-21.3,32.8c-11.5,2.5-31,0.7-34.6-20.5
		C178,80.5,191.8,69.1,202.4,67.1"/>
	<path id="path2503" class="st0" d="M53.3,116.5h7.3c27.2,0,34.5-2.5,44-15.2s10.7-30.9,10.7-37.1s-1.6-21.6-11.2-34.7
		C94.6,16.4,78.6,13,64.6,13H53.3c-2.7,0-2.8,1.2-2.8,3.1v98C50.4,116.2,51.2,116.5,53.3,116.5 M9.1,118.8c0-1,1.3-1.2,2.5-1.2
		c13.8-0.4,16.4-0.9,18-2.5c0.9-0.9,2.1-1.6,2.1-8V18.8c0-7.9-9.6-6.7-16.4-7.4c-2.4-0.2-2.6-0.6-2.6-1.3s0.5-1,1.7-1.1h55.7
		c61.3,0,64.4,44.8,64.4,56.7c0,25.7-17,53.9-52.4,53.9H10.9C10,119.8,9.1,119.6,9.1,118.8"/>
</g>
</svg>
