<?xml version="1.0" encoding="utf-8"?>
<!-- Generator: Adobe Illustrator 27.0.1, SVG Export Plug-In . SVG Version: 6.00 Build 0)  -->
<svg version="1.1" id="Ebene_1" xmlns="http://www.w3.org/2000/svg" xmlns:xlink="http://www.w3.org/1999/xlink" x="0px" y="0px"
	 viewBox="0 0 86.6 22.9" style="enable-background:new 0 0 86.6 22.9;" xml:space="preserve">
<style type="text/css">
	.st0{fill:#FFFFFF;}
</style>
<path class="st0" d="M41.7,4.4c-0.5,0.8-1,1.9-1.4,2.9c-0.3,0.9-0.9,2.6-1.2,3.1c-0.7,1.7-1.4,2.4-2.8,2.4c-0.9,0-1.9-0.8-1.9-0.8
	l-0.3,0.5c0.3,0.3,1.3,0.9,2.6,1c1.7,0,2.9-0.8,3.8-2c0.6-0.9,1.2-2.2,1.7-3.5s0.9-2.8,1.5-3.9s1.4-1.7,2.5-1.7
	c0.8,0,1.4,0.3,1.4,0.3l0.2-0.5c0,0-0.8-0.4-1.8-0.4C43.8,1.8,42.5,3,41.7,4.4z M26.6,7h-6.1V2h-1.9v11.2h1.9V7.7h6.1v5.5h1.9V2
	h-1.9V7z M31.2,13.2h1.9V2h-1.9V13.2z M20.9,0.7c0,0-1.3-0.8-3.4-0.7c-2.6,0.1-4.8,1.7-5.9,3.4c-0.8,1.2-1.4,2.5-1.8,3.7
	C9.5,7.9,9,9.1,8.6,10c-0.8,1.8-2.3,3.4-4.5,3.3c-2.3-0.1-3.9-1.8-3.9-1.8L-0.3,12c1,1,2.7,2,4.8,2.1c2.2,0.1,4.8-1.3,6-3.3
	c0.4-0.6,1-1.8,1.4-3.1c0.5-1.7,0.9-2.9,1.4-4s2.1-3,4.5-3c1.7,0,2.8,0.6,2.8,0.6L20.9,0.7z M80.4,1.8c-3.7,0-6.2,2.5-6.2,5.8
	s2.5,5.8,6.2,5.8s6.2-2.5,6.2-5.8C86.6,4.3,84.1,1.8,80.4,1.8z M80.4,12.7c-3.9,0-4.3-3.5-4.3-5.1c0-1.5,0.3-5.1,4.3-5.1
	c3.9,0,4.3,3.5,4.3,5.1C84.7,9.1,84.3,12.7,80.4,12.7z M66.8,2c-0.8,0-3.9,0-3.9,0v11.2c0,0,3.6,0,3.9,0c5.7,0,6.1-4.6,6.1-5.6
	C72.9,6.2,72.3,2,66.8,2z M66.7,12.4h-1.9V2.7h1.9c3.5,0,4.3,2.5,4.3,4.8C71,10.1,70,12.4,66.7,12.4z M50.4,12.4V7.7h5.1V6.9h-5.1
	V2.8h5.7V2h-7.6v11.2h7.6v-0.8H50.4z M58.3,13.2h1.9V2h-1.9V13.2z"/>
<path class="st0" d="M23.7,22.3c-0.4,0.3-0.9,0.6-1.8,0.6c-1.4,0-2.5-0.8-2.5-2.2c0-1.3,0.9-2.2,2.4-2.2c0.8,0,1.4,0.3,1.7,0.6
	l-0.2,0.2C23,19,22.6,18.8,22,18.8c-1,0-1.7,0.7-1.7,1.9c0,1.1,0.8,1.9,1.8,1.9c0.3,0,0.7-0.1,0.9-0.2V21h-0.8v-0.3h1.6L23.7,22.3
	C23.8,22.3,23.7,22.3,23.7,22.3z"/>
<path class="st0" d="M25.1,22.9v-4.2h0.8v4.2H25.1z"/>
<path class="st0" d="M30.6,22.9l-2.9-3.5v3.5h-0.4v-4.2H28l2.7,3.4v-3.4h0.4v4.2H30.6z"/>
<path class="st0" d="M32.3,22.9v-0.3l2.6-3.6h-2.4v-0.3h3.3V19l-2.5,3.6h2.6v0.3H32.3z"/>
<path class="st0" d="M40.4,22.9l-0.7-1.5h-2.1l-0.7,1.5h-0.4l2-4.2h0.7l2,4.2H40.4z M38.7,19.1l-0.9,2h1.8L38.7,19.1z"/>
<path class="st0" d="M47.8,19v3.9H47V19h-1.4v-0.3h3.6V19H47.8z"/>
<path class="st0" d="M54.7,20.8c0,1.4-1.1,2.2-2.4,2.2s-2.4-0.8-2.4-2.2s1.1-2.2,2.4-2.2C53.6,18.6,54.7,19.4,54.7,20.8z M53.9,20.8
	c0-1.1-0.6-1.9-1.6-1.9s-1.6,0.8-1.6,1.9c0,1.1,0.6,1.9,1.6,1.9S53.9,21.9,53.9,20.8z"/>
<path class="st0" d="M58.5,22.9l-1.7-2.1v2.1H56v-4.2h0.8v1.9l2-1.9h0.5l-1.9,1.8l2.2,2.4C59.6,22.9,58.5,22.9,58.5,22.9z"/>
<path class="st0" d="M62.4,21.1v1.8h-0.8v-1.8l-1.7-2.4h1l1.4,2l1.4-2h0.4L62.4,21.1z"/>
<path class="st0" d="M69.5,20.8c0,1.4-1.1,2.2-2.4,2.2s-2.4-0.8-2.4-2.2s1.1-2.2,2.4-2.2C68.4,18.6,69.5,19.4,69.5,20.8z M68.7,20.8
	c0-1.1-0.6-1.9-1.6-1.9s-1.6,0.8-1.6,1.9c0,1.1,0.6,1.9,1.6,1.9S68.7,21.9,68.7,20.8z"/>
</svg>
