<?xml version="1.0" encoding="utf-8"?>
<!-- Generator: Adobe Illustrator 27.0.1, SVG Export Plug-In . SVG Version: 6.00 Build 0)  -->
<svg version="1.1" id="Isolation_Mode" xmlns="http://www.w3.org/2000/svg" xmlns:xlink="http://www.w3.org/1999/xlink" x="0px"
	 y="0px" viewBox="0 0 152.3 64.4" style="enable-background:new 0 0 152.3 64.4;" xml:space="preserve">
<style type="text/css">
	.st0{opacity:0.45;fill:#FFFFFF;}
	.st1{fill:#FFFFFF;}
	.st2{opacity:0.7;fill:#FFFFFF;}
	.st3{fill-rule:evenodd;clip-rule:evenodd;fill:#FFFFFF;}
</style>
<g>
	<path class="st0" d="M133.2,27.9c0.4-3.3,0.5-7.7-0.3-12.2c-2.1-2.2-4.3-4.2-6.5-5.7c4,5.4,3.7,15.6,2.8,21.3
		c4.8,0.4,10.7,2.2,14.9,5.8c-0.5-2.4-1.2-4.6-2-6.8C139,28.9,135.8,28.1,133.2,27.9z"/>
	<path class="st1" d="M132,0c12.7,7.8,19.3,20.5,20.7,31.2c-4.9-4-11.3-6.3-15.4-6.8C137.9,18.5,136.8,9.5,132,0"/>
	<path class="st1" d="M132,0c12.7,7.8,19.3,20.5,20.7,31.2c-4.9-4-11.3-6.3-15.4-6.8C137.9,18.5,136.8,9.5,132,0"/>
	<path class="st2" d="M137.3,24.4c0.4-3.6,0.1-8.5-1.3-13.9c-2.1-2.1-4.3-3.9-6.8-5.5c4.4,7.5,4.8,17,4,22.9
		c4.5,0.4,10.6,2.4,15.2,6.3c-0.4-2.3-1-4.6-1.8-6.9C143.2,25.7,139.8,24.7,137.3,24.4z"/>
	<path class="st1" d="M11.6,41.8V29.5H8.3v3.4c0,1,0,2.6,0.1,3.2C8.1,35.6,7,34,6.5,33.2l-2.7-3.6h-3v12.3H4V38c0-1,0-2.6-0.1-3.2
		c0.3,0.5,1.4,2.1,1.9,2.9l2.9,4.1H11.6z"/>
	<path class="st1" d="M26.2,35.6c0-4.1-2.3-6.3-5.7-6.3c-3.3,0-5.7,2.3-5.7,6.4s2.3,6.3,5.7,6.3C23.8,42,26.2,39.7,26.2,35.6
		 M22.7,35.6c0,2.2-0.8,3.4-2.1,3.4c-1.4,0-2.2-1.2-2.2-3.4s0.8-3.4,2.1-3.4S22.7,33.4,22.7,35.6"/>
	<path class="st1" d="M40,41.8l-2.5-4.7c1.4-0.6,2.2-1.8,2.2-3.6c0-2.9-1.9-4-4.8-4h-5.5v12.3h3.4v-4.1h1.4l2,4.1H40z M36.4,33.6
		c0,0.9-0.4,1.4-1.5,1.4h-2v-2.7H35C36,32.2,36.4,32.8,36.4,33.6"/>
	<path class="st1" d="M53.9,35.5c0-4.6-2.5-6.1-6.3-6.1h-4.3v12.3h4C51.6,41.8,53.9,40.2,53.9,35.5 M50.4,35.6c0,2.4-0.8,3.3-3,3.3
		h-0.7v-6.5h0.8C49.7,32.4,50.4,33.3,50.4,35.6"/>
	<path class="st1" d="M69.5,41.8V29.5h-3.1l-1.5,3.3c-0.8,1.7-1.3,3-1.5,3.7c-0.2-0.7-0.8-2.1-1.5-3.7l-1.5-3.3h-3.1v12.3h3.2v-2.9
		c0-1.2,0-2.3-0.1-3.3c0.4,0.9,1,2.3,1.4,3.2l1.6,3.4l1.6-3.4c0.4-0.9,1.1-2.3,1.4-3.2c-0.1,0.9-0.1,2.1-0.1,3.3v2.9H69.5z"/>
	<polygon class="st1" points="82.4,41.8 82.4,38.9 76.7,38.9 76.7,36.8 80.4,36.8 80.4,34 76.7,34 76.7,32.3 82.2,32.3 82.2,29.5 
		73.3,29.5 73.3,41.8 	"/>
	<path class="st1" d="M105.8,41.8l-4.5-12.3h-3.4l-4.5,12.3h3.7l0.7-2.2h3.7l0.7,2.2H105.8z M100.6,36.9h-2l0.2-0.8
		c0.4-1.6,0.6-2.3,0.8-3.1c0.2,0.8,0.4,1.5,0.8,3.1L100.6,36.9z"/>
	<polygon class="st1" points="115.5,41.8 115.5,38.8 111.6,38.8 111.6,29.5 108.1,29.5 108.1,41.8 	"/>
	<polygon class="st1" points="125.5,41.8 125.5,38.8 121.6,38.8 121.6,29.5 118.1,29.5 118.1,41.8 	"/>
	<polygon class="st1" points="93.1,32.4 93.1,29.5 84.1,29.5 84.1,32.4 86.9,32.4 86.9,41.8 90.3,41.8 90.3,32.4 	"/>
	<path class="st1" d="M9.8,56.7c0-2.7-2.2-3.4-4.2-3.9s-2.5-0.7-2.5-1.5c0-0.6,0.4-1.1,1.8-1.1c1.1,0,2,0.5,2.8,1.3l1.8-1.8
		c-1.2-1.2-2.6-2-4.6-2c-2.5,0-4.5,1.4-4.5,3.7c0,2.5,1.6,3.2,3.9,3.7c2.4,0.5,2.8,0.9,2.8,1.7c0,0.9-0.7,1.4-2.2,1.4
		c-1.2,0-2.3-0.4-3.2-1.4L0,58.4c0.9,1.4,2.8,2.3,4.9,2.3C8.3,60.7,9.8,59.1,9.8,56.7"/>
	<path class="st1" d="M18.6,57.6c-0.6,0.5-0.9,0.7-1.4,0.7c-0.6,0-0.9-0.2-0.9-1.1v-3.8h2.3v-2.3h-2.3v-3.7l-2.5,1.2V51h-1.6v2.3
		h1.6v4.4c0,1.6,1,2.8,2.5,2.8c0.8,0,1.5-0.3,1.9-0.6L18.6,57.6z"/>
	<path class="st3" d="M24.8,48.9c0-0.8-0.6-1.4-1.4-1.4S22,48.1,22,48.9c0,0.8,0.6,1.4,1.4,1.4C24.1,50.3,24.8,49.7,24.8,48.9
		 M24.6,51.1h-2.5v9.4h2.5V51.1z"/>
	<path class="st1" d="M33.1,49.7v-2c-0.4-0.2-0.9-0.3-1.6-0.3c-1.7,0-2.7,0.7-2.7,2.5V51h-1.1v2.3h1.1v7.1h2.5v-7.1h1.6V51h-1.6
		v-0.8c0-0.5,0.2-0.8,0.9-0.8C32.6,49.5,32.8,49.6,33.1,49.7"/>
	<path class="st1" d="M41.6,57.6c-0.6,0.5-0.9,0.7-1.4,0.7c-0.6,0-0.9-0.2-0.9-1.1v-3.8h2.3v-2.3h-2.3v-3.7l-2.5,1.2V51h-1.6v2.3
		h1.6v4.4c0,1.6,1,2.8,2.5,2.8c0.8,0,1.5-0.3,1.9-0.6L41.6,57.6z"/>
	<path class="st3" d="M53,60.5v-9.4h-2.5v5.1c0,1.6-0.6,2.1-1.6,2.1s-1.6-0.5-1.6-2.2V51h-2.5v5.3c0,2.6,1.1,4.3,3.5,4.3
		c1,0,1.8-0.4,2.2-0.8v0.6H53V60.5z"/>
	<path class="st3" d="M64.7,60.5v-5.3c0-2.6-1.1-4.3-3.5-4.3c-1,0-1.8,0.4-2.2,0.8v-0.6h-2.5v9.4H59v-5.1c0-1.6,0.6-2.1,1.6-2.1
		s1.6,0.5,1.6,2.2v5.1h2.5V60.5z"/>
	<path class="st3" d="M75.8,58.9v-7.8h-2.5v0.5c-0.4-0.4-1.2-0.7-2-0.7c-2.3,0-3.7,2-3.7,4.8c0,3.5,1.6,5,3.7,5c0.9,0,1.5-0.4,2-0.8
		c0,1.4-0.5,1.9-2.5,2.2l0.9,1.9C75,63.6,75.8,62,75.8,58.9 M73.3,57.6c-0.4,0.5-0.8,0.8-1.5,0.8c-1,0-1.6-0.8-1.6-2.7
		c0-1.6,0.5-2.4,1.5-2.4c0.7,0,1.3,0.3,1.7,0.8L73.3,57.6L73.3,57.6z"/>
</g>
</svg>
