<?xml version="1.0" encoding="utf-8"?>
<!-- Generator: Adobe Illustrator 27.0.1, SVG Export Plug-In . SVG Version: 6.00 Build 0)  -->
<svg version="1.1" id="Ebene_1" xmlns="http://www.w3.org/2000/svg" xmlns:xlink="http://www.w3.org/1999/xlink" x="0px" y="0px"
	 viewBox="0 0 237.8 112" style="enable-background:new 0 0 237.8 112;" xml:space="preserve">
<style type="text/css">
	.st0{fill:#FFFFFF;}
</style>
<g id="Gruppe_5849" transform="translate(93.308 29.843)">
	<path id="Pfad_14651" class="st0" d="M27.4,0h4.8l-5.9,26.1h-5.4L16.1,6.8l-4.9,19.3H5.8L0,0h5l3.8,19.9L13.9,0h4.6l5.1,19.9
		L27.4,0z"/>
</g>
<g id="Gruppe_5854">
	<g id="Gruppe_5850" transform="translate(126.085 29.367)">
		<path id="Pfad_14652" class="st0" d="M17.1,23.1c0.1,1-0.2,2-0.9,2.7c-0.9,0.6-2,0.9-3,0.8h-6c-2.6,0-4.5-0.5-5.6-1.5
			C0.5,24-0.1,22.5,0,20.9v-0.8c-0.2-1.7,0.5-3.3,1.8-4.4c1.2-0.9,3.1-1.4,5.6-1.4c1.1,0,2.1,0.1,3.2,0.3c0.7,0.1,1.3,0.4,1.9,0.7
			v-0.7c0-0.6-0.1-1.1-0.2-1.6c-0.1-0.4-0.4-0.8-0.7-1.1c-0.4-0.3-0.8-0.5-1.3-0.5c-0.7-0.1-1.4-0.2-2.1-0.1H6.7c-0.6,0-1.1,0-1.7,0
			s-1.1,0-1.7,0s-1.1,0-1.5,0l0.8-3.9c0.7,0,1.5,0,2.6,0s2.2,0,3.4,0c3,0,5.2,0.5,6.6,1.6c1.5,1.2,2.2,3.1,2.1,5L17.1,23.1z
			 M8.2,2.4C8.2,3,8,3.6,7.6,4.1C7.1,4.6,6.4,4.8,5.7,4.7C5,4.8,4.3,4.6,3.8,4.1C3.4,3.7,3.2,3,3.2,2.4s0.2-1.3,0.6-1.8
			C4.3,0.1,5-0.1,5.7,0c0.7-0.1,1.4,0.1,1.9,0.6C8,1.1,8.2,1.7,8.2,2.4 M12.5,23.1v-3c0-0.4,0-0.8-0.1-1.1c-0.1-0.3-0.3-0.6-0.5-0.8
			c-0.3-0.2-0.7-0.4-1.1-0.4c-0.6-0.1-1.3-0.1-1.9-0.1H8.2c-1-0.1-1.9,0.1-2.8,0.5c-0.5,0.5-0.8,1.2-0.7,1.9v0.7
			c-0.1,0.6,0.2,1.3,0.7,1.7C6.2,23,7,23.2,7.9,23.1L12.5,23.1z M15,2.4c0.1,0.6-0.1,1.3-0.6,1.8c-0.5,0.4-1.2,0.7-1.9,0.6
			c-0.7,0.1-1.4-0.1-1.9-0.6C10.2,3.7,10,3,10.1,2.4c-0.1-0.6,0.1-1.3,0.6-1.8C11.2,0.2,11.9,0,12.6,0c0.7-0.1,1.4,0.1,1.9,0.6
			C14.9,1.1,15.1,1.7,15,2.4"/>
	</g>
	<g id="Gruppe_5851" transform="translate(146.691 36.813)">
		<path id="Pfad_14653" class="st0" d="M4.8,19.1H0V6.6c0-1.1,0.1-2.1,0.5-3.1C0.8,2.7,1.3,2,2,1.5s1.5-0.9,2.4-1.1
			C5.5,0.1,6.6,0,7.7,0h2.4c0.7,0,1.3,0,1.9,0l-0.8,4c-0.5,0-1,0-1.6-0.1c-0.6,0-1.1,0-1.5,0c-0.6,0-1.2,0-1.8,0.2
			C6,4.3,5.6,4.5,5.3,4.8c-0.2,0.3-0.4,0.7-0.4,1c-0.1,0.5-0.1,1-0.1,1.5V19.1z"/>
	</g>
	<g id="Gruppe_5852" transform="translate(160.411 36.301)">
		<path id="Pfad_14654" class="st0" d="M0,19.7V6.6c0-1.1,0.2-2.1,0.5-3.1C0.8,2.7,1.4,2,2,1.5C2.7,1,3.6,0.6,4.5,0.4
			C5.6,0.1,6.8,0,7.9,0c1.2,0,2.4,0.2,3.5,0.6c0.9,0.3,1.7,0.9,2.4,1.6c0.6-0.7,1.5-1.3,2.4-1.6C17.3,0.2,18.5,0,19.7,0
			c1.1,0,2.2,0.1,3.3,0.3c0.9,0.2,1.7,0.6,2.5,1.1c0.7,0.5,1.2,1.2,1.5,2c0.4,1,0.5,2,0.5,3.1v13.1h-4.8V7.3c0-0.5,0-1-0.1-1.5
			c0-0.4-0.2-0.7-0.4-1.1c-0.3-0.3-0.6-0.5-1-0.6C20.7,4,20,3.9,19.4,3.9s-1.1,0-1.7,0.2c-0.4,0.1-0.7,0.3-1,0.6
			c-0.2,0.2-0.4,0.6-0.5,0.9c-0.1,0.4-0.1,0.9-0.1,1.3v12.8h-4.8V7.3c0-0.5,0-1-0.1-1.5c-0.1-0.4-0.2-0.7-0.4-1.1
			c-0.3-0.3-0.6-0.5-1-0.6C9.3,4,8.7,3.9,8.1,3.9c-0.6,0-1.2,0-1.8,0.2c-0.4,0.1-0.7,0.3-1,0.6C5.1,5.1,4.9,5.4,4.9,5.8
			c-0.1,0.5-0.1,1-0.1,1.5v12.4H0z"/>
	</g>
	<g id="Gruppe_5853" transform="translate(191.125 36.301)">
		<path id="Pfad_14655" class="st0" d="M4.8,11.7c0,0.7,0,1.4,0.2,2.2c0.1,0.5,0.3,0.9,0.6,1.3c0.3,0.3,0.8,0.6,1.3,0.7
			C7.6,16,8.3,16.1,9,16.1h2.9c1.1,0,2.5,0,4.1-0.1l-0.7,3.7c-0.7,0-1.3,0-1.8,0.1s-1.1,0-1.6,0H8.7c-1.4,0-2.9-0.2-4.3-0.6
			c-1-0.3-1.9-0.9-2.7-1.7c-0.7-0.8-1.1-1.7-1.4-2.7C0.1,13.6,0,12.4,0,11.1v-2c0-1.3,0.1-2.6,0.4-3.9c0.2-1.1,0.7-2,1.4-2.8
			S3.5,1,4.5,0.7C5.9,0.2,7.4,0,8.8,0s2.7,0.1,4,0.5c1,0.3,1.8,0.8,2.6,1.5c0.6,0.6,1.1,1.4,1.4,2.3s0.4,1.9,0.4,2.8v0.6
			c0,0.7,0,1.4-0.1,2c-0.1,0.4-0.2,0.9-0.5,1.2c-0.2,0.3-0.5,0.5-0.9,0.6s-0.9,0.2-1.4,0.1L4.8,11.7L4.8,11.7z M8.7,3.6
			c-0.7,0-1.4,0-2,0.2C6.2,3.9,5.8,4.2,5.5,4.5C5.2,4.9,5,5.4,4.9,6C4.8,6.7,4.8,7.5,4.8,8.3h7.9V7.4c0-0.6-0.1-1.2-0.2-1.8
			c-0.1-0.4-0.3-0.8-0.6-1.2c-0.3-0.3-0.8-0.5-1.2-0.6C10,3.6,9.4,3.6,8.7,3.6"/>
	</g>
</g>
<g id="Gruppe_5855" transform="translate(95.51 67.188)">
	<path id="Pfad_14657" class="st0" d="M19.6,0v26.1h-2.2V13.7H2.2v12.4H0V0h2.2v11.7h15.3V0H19.6z"/>
</g>
<g id="Gruppe_5856" transform="translate(119.075 74.378)">
	<path id="Pfad_14658" class="st0" d="M15.4,16.8c0.1,0.6-0.1,1.2-0.5,1.7c-0.5,0.3-1.2,0.5-1.8,0.4h-6c-2.5,0-4.3-0.4-5.4-1.3
		c-1.2-1.1-1.8-2.7-1.6-4.3v-0.5c-0.2-1.7,0.5-3.3,1.7-4.5c1.1-0.9,2.9-1.4,5.4-1.4c1.4,0,2.7,0.1,4,0.5c0.8,0.2,1.6,0.7,2.2,1.3
		V6.5c0-0.8-0.1-1.5-0.3-2.2c-0.1-0.6-0.5-1.1-0.9-1.4c-0.5-0.4-1.2-0.7-1.8-0.8c-1-0.2-2-0.2-3-0.2c-0.9,0-1.9,0-2.9,0
		S2.6,1.9,1.8,2l0.4-1.9C2.9,0,3.7,0,4.6,0s1.8,0,2.8,0c1.2,0,2.5,0.1,3.7,0.3c0.9,0.2,1.7,0.5,2.5,1.1c0.6,0.5,1.1,1.2,1.4,1.9
		c0.3,0.9,0.5,1.9,0.4,2.9L15.4,16.8L15.4,16.8z M2,13.3c0,0.6,0.1,1.1,0.2,1.7c0.2,0.5,0.4,0.9,0.8,1.2c0.5,0.4,1,0.6,1.5,0.7
		c0.8,0.2,1.6,0.2,2.4,0.2h6.2v-4.4c0-0.7-0.1-1.3-0.4-1.9c-0.2-0.5-0.6-0.9-1.1-1.2c-0.4-0.4-1-0.6-1.6-0.7
		C9.2,8.8,8.4,8.7,7.5,8.7H7C5.7,8.6,4.3,8.9,3.2,9.6c-0.8,0.8-1.3,2-1.1,3.2C2.1,12.8,2.1,13.3,2,13.3z"/>
</g>
<g id="Gruppe_5857" transform="translate(138.844 73.868)">
	<path id="Pfad_14659" class="st0" d="M0,19.4V6.2C0,4,0.6,2.4,1.8,1.4c1.5-1,3.3-1.5,5.1-1.4c1.3-0.1,2.7,0.2,3.9,0.8
		c0.9,0.4,1.6,1.2,2.1,2.1C13.4,2,14.1,1.3,15,0.8C16.1,0.2,17.4,0,18.7,0c1,0,2,0.1,2.9,0.3c0.8,0.2,1.5,0.5,2.2,1
		c0.6,0.5,1.1,1.2,1.4,1.9c0.4,0.9,0.5,1.9,0.5,2.9v13.3h-2.1V6.3c0.1-1.3-0.3-2.5-1.1-3.5c-1.1-0.8-2.4-1.1-3.6-1
		c-1.3-0.1-2.6,0.2-3.6,1c-0.9,0.9-1.3,2.1-1.1,3.4v13.2H12V6.3c0.1-1.3-0.3-2.5-1.2-3.5C9.7,2,8.4,1.7,7.1,1.8
		c-1.8,0-3,0.4-3.7,1.1c-0.8,1-1.2,2.2-1,3.4v13.1C2.4,19.4,0,19.4,0,19.4z"/>
</g>
<g id="Gruppe_5858" transform="translate(168.776 66.05)">
	<path id="Pfad_14660" class="st0" d="M8.6,7.8c1.2,0,2.4,0.1,3.6,0.4C13.1,8.5,14,9,14.7,9.6c0.7,0.7,1.2,1.6,1.5,2.6
		c0.3,1.3,0.5,2.7,0.5,4v2.9c0,1.4-0.1,2.7-0.5,4.1c-0.3,1-0.8,1.9-1.5,2.6s-1.6,1.2-2.6,1.4c-1.2,0.3-2.4,0.5-3.7,0.4
		c-1.3,0-2.5-0.1-3.7-0.4c-1-0.2-1.8-0.7-2.6-1.4c-0.7-0.7-1.2-1.6-1.5-2.6c-0.3-1.3-0.5-2.7-0.5-4V0h2.1v10.3
		c0.6-0.9,1.4-1.6,2.5-1.9C5.9,8,7.2,7.8,8.6,7.8 M8.4,9.7C7.6,9.7,6.8,9.8,6,9.9c-0.7,0.1-1.4,0.4-2,0.8c-0.6,0.4-1.1,1-1.4,1.7
		c-0.4,0.9-0.5,1.9-0.5,2.9v4.1c0,1.1,0.1,2.2,0.3,3.3c0.2,0.8,0.5,1.5,1.1,2c0.5,0.5,1.2,0.9,1.9,1c1,0.2,2,0.3,2.9,0.3
		s1.9-0.1,2.8-0.3c0.7-0.2,1.4-0.5,1.9-1c0.5-0.6,0.9-1.3,1.1-2c0.2-1.1,0.4-2.2,0.3-3.3v-2.9c0-1.1-0.1-2.3-0.4-3.4
		c-0.2-0.8-0.6-1.5-1.1-2.1c-0.5-0.5-1.2-0.9-1.9-1C10.2,9.8,9.3,9.7,8.4,9.7"/>
</g>
<g id="Gruppe_5859" transform="translate(189.174 74.455)">
	<path id="Pfad_14661" class="st0" d="M7.7,19.4c-1.3,0-2.5-0.1-3.8-0.4c-0.9-0.2-1.7-0.7-2.4-1.3c-0.6-0.6-1-1.3-1.2-2.1
		c-0.2-1-0.4-2-0.3-3V0h2.1v12.4c0,0.8,0,1.5,0.2,2.3c0.1,0.6,0.4,1.2,0.8,1.6c0.5,0.5,1,0.8,1.7,1c1,0.2,2,0.4,3,0.3
		c1,0,2-0.1,3-0.3c0.6-0.1,1.2-0.5,1.7-1c0.4-0.5,0.7-1,0.8-1.6c0.1-0.8,0.2-1.5,0.2-2.3V0h2.1v12.6c0,1-0.1,2-0.4,2.9
		C15,16.3,14.6,17,14,17.6c-0.7,0.6-1.5,1.1-2.4,1.3C10.3,19.3,9,19.5,7.7,19.4"/>
</g>
<g id="Gruppe_5860" transform="translate(209.01 74.38)">
	<path id="Pfad_14662" class="st0" d="M0,18.9V6.5c0-1.1,0.1-2.1,0.4-3.2c0.2-0.8,0.7-1.5,1.3-2s1.3-0.9,2.1-1C4.7,0.1,5.7,0,6.7,0
		H9c0.7,0,1.3,0,1.7,0l-0.4,2C10,2,9.5,2,8.8,1.9s-1.4,0-2,0c-0.8,0-1.6,0-2.3,0.2C4,2.2,3.5,2.5,3.1,2.9S2.5,3.8,2.3,4.4
		C2.2,5.2,2.1,6,2.1,6.8V19H0V18.9z"/>
</g>
<g id="Gruppe_5861" transform="translate(221.338 73.866)">
	<path id="Pfad_14663" class="st0" d="M14.4,16.3c-0.6,0.9-1.4,1.6-2.4,1.9c-1.3,0.4-2.6,0.6-4,0.6c-2.8,0-4.8-0.6-6.1-1.9
		C0.6,15.7,0,13.6,0,10.6V8.2c0-1.3,0.1-2.6,0.5-3.8c0.3-1,0.8-1.8,1.5-2.5s1.6-1.2,2.5-1.4C5.7,0.1,7,0,8.2,0
		c1.3,0,2.6,0.1,3.9,0.5c1,0.3,1.8,0.8,2.6,1.5c0.7,0.7,1.2,1.6,1.4,2.5c0.3,1.2,0.4,2.4,0.4,3.6v10c0,1.2-0.1,2.5-0.5,3.6
		c-0.3,0.9-0.8,1.8-1.5,2.4c-0.8,0.7-1.7,1.1-2.6,1.3c-1.3,0.3-2.6,0.4-3.9,0.4c-1,0-2,0-2.9,0s-1.9,0-3.1-0.1l0.4-1.9
		c1.1,0,2,0.1,2.8,0.1s1.7,0,2.7,0s2-0.1,3-0.3c0.7-0.1,1.4-0.5,2-1c0.5-0.5,0.9-1.1,1.1-1.8c0.2-0.9,0.4-1.9,0.3-2.9L14.4,16.3z
		 M8.2,16.9c0.8,0,1.6-0.1,2.4-0.2c0.7-0.1,1.4-0.4,2-0.8c0.6-0.4,1.1-1,1.4-1.6c0.4-0.9,0.5-1.8,0.5-2.8V8.1c0-1-0.1-2.1-0.3-3.1
		c-0.2-0.7-0.5-1.4-1.1-1.9c-0.5-0.5-1.2-0.8-1.9-1c-1.1-0.1-2.1-0.2-3-0.2c-1,0-1.9,0.1-2.9,0.3C4.6,2.3,4,2.7,3.5,3.2
		s-0.9,1.2-1,2c-0.2,1-0.3,2.1-0.3,3.2v2.2c0,1.1,0.1,2.2,0.3,3.2c0.2,0.7,0.5,1.4,1.1,2c0.5,0.5,1.2,0.8,1.9,1
		C6.4,16.8,7.3,16.9,8.2,16.9"/>
</g>
<g id="Gruppe_5862" transform="translate(0 -0.002)">
	<path id="Pfad_14664" class="st0" d="M61.6,18.7c-5.2,0-9.3,4.2-9.3,9.3l0,0v13c0,2.1-1.7,3.7-3.7,3.7S44.9,43,44.9,41l0,0l0,0V9.3
		c0-5.2-4.2-9.3-9.3-9.3s-9.3,4.2-9.3,9.3V56c0,2.1-1.7,3.7-3.7,3.7S18.7,58,18.7,56l0,0v-9.3c0-5.2-4.2-9.3-9.3-9.3
		c-5.2,0-9.3,4.2-9.3,9.3l0,0V84c0,5.2,4.2,9.3,9.3,9.3l0,0c5.1,0,9.3-4.2,9.3-9.3V70.9c0-2.1,1.7-3.7,3.7-3.7s3.7,1.7,3.7,3.7l0,0
		v31.7c0,5.2,4.2,9.3,9.3,9.3s9.3-4.2,9.3-9.3l0,0V56l0,0c0-2.1,1.7-3.7,3.7-3.7s3.7,1.7,3.7,3.7l0,0v37.3c0,5.2,4.2,9.3,9.3,9.3
		s9.3-4.2,9.3-9.3V28C70.9,22.8,66.7,18.7,61.6,18.7"/>
</g>
</svg>
