<?xml version="1.0" encoding="utf-8"?>
<!-- Generator: Adobe Illustrator 27.3.1, SVG Export Plug-In . SVG Version: 6.00 Build 0)  -->
<svg version="1.1" id="Ebene_1" xmlns="http://www.w3.org/2000/svg" xmlns:xlink="http://www.w3.org/1999/xlink" x="0px" y="0px"
	 viewBox="0 0 163.4 63.5" style="enable-background:new 0 0 163.4 63.5;" xml:space="preserve">
<style type="text/css">
	.st0{fill:#E6007E;}
</style>
<g>
	<path class="st0" d="M101.2,43.5c0,2.7,0.4,5,1.3,7c0.9,2,2.2,3.5,4.1,4.6c1.8,1.1,4.2,1.7,7.1,1.7c2.9,0,5.3-0.6,7.2-1.7
		c1.8-1.1,3.2-2.6,4-4.6c0.9-2,1.3-4.3,1.3-7c0-2.7-0.4-5-1.3-7c-0.9-2-2.2-3.5-4-4.6c-1.8-1.1-4.2-1.6-7.1-1.6
		c-2.9,0-5.3,0.5-7.1,1.6c-1.8,1.1-3.2,2.6-4.1,4.6C101.7,38.5,101.2,40.8,101.2,43.5z M109.7,38c0.8-1.3,2.1-2,4-2
		c1.9,0,3.2,0.7,4,2c0.8,1.3,1.2,3.2,1.2,5.5c0,2.3-0.4,4.2-1.2,5.5c-0.8,1.3-2.1,2-4,2c-1.8,0-3.2-0.7-4-2
		c-0.8-1.3-1.2-3.1-1.2-5.5C108.5,41.2,108.9,39.3,109.7,38z"/>
	<path class="st0" d="M137.8,47.9h1.9c1.8,0,3.4-0.2,4.6-0.7c1.2-0.5,2.2-1.2,3-2c0.8-0.9,1.3-1.8,1.6-2.9c0.3-1.1,0.5-2.2,0.5-3.4
		c0-2.6-0.8-4.6-2.4-6c-1.6-1.4-4.1-2.1-7.3-2.1h-8.9v25.7h6.9V47.9z M137.8,36.3h1.8c1,0,1.8,0.3,2.2,0.8s0.7,1.2,0.7,2
		c0,1.2-0.3,2-1,2.5c-0.7,0.5-1.5,0.7-2.4,0.7h-1.4V36.3z"/>
	<path class="st0" d="M110.9,18.3c0.4,0,0.8,0,1.1-0.1s0.6-0.2,0.8-0.4c0.2-0.2,0.4-0.4,0.7-0.7h0.1l0.5,1h1.8V13
		c0-0.9-0.3-1.6-0.8-2.1s-1.3-0.7-2.3-0.7c-0.7,0-1.3,0.1-1.9,0.2c-0.6,0.1-1.1,0.3-1.5,0.5l0.8,1.8c0.4-0.2,0.8-0.3,1.1-0.4
		c0.4-0.1,0.7-0.2,1-0.2c0.3,0,0.5,0.1,0.7,0.2s0.3,0.4,0.3,0.7v0.1l-1.3,0c-1.1,0-1.9,0.3-2.5,0.7s-0.9,1-0.9,1.8
		c0,0.8,0.2,1.5,0.7,1.9S110.2,18.3,110.9,18.3z M111.6,14.9c0.2-0.2,0.5-0.2,1-0.3l0.6,0v0.6c0,0.3-0.1,0.6-0.3,0.8
		c-0.2,0.2-0.5,0.3-0.8,0.3c-0.2,0-0.4-0.1-0.6-0.2c-0.1-0.1-0.2-0.3-0.2-0.6C111.3,15.3,111.4,15.1,111.6,14.9z"/>
	<path class="st0" d="M120.4,14.7c0-0.8,0.1-1.4,0.3-1.8c0.2-0.4,0.5-0.6,1-0.6c0.3,0,0.6,0.1,0.7,0.4c0.1,0.3,0.2,0.6,0.2,1.2v4.2
		h2.7v-5c0-1-0.3-1.7-0.8-2.2c-0.5-0.5-1.2-0.7-2-0.7c-0.5,0-1,0.1-1.4,0.3c-0.4,0.2-0.7,0.5-1,0.9h-0.1l-0.4-1h-2v7.7h2.7V14.7z"/>
	<path class="st0" d="M129.5,18.3c0.5,0,1-0.1,1.3-0.3c0.3-0.2,0.6-0.5,0.8-0.8h0.1l0.6,1h2V7.5h-2.7v2.1c0,0.3,0,0.7,0,1
		c0,0.3,0.1,0.6,0.1,0.8h-0.1c-0.2-0.3-0.5-0.6-0.8-0.8c-0.3-0.2-0.7-0.3-1.2-0.3c-0.8,0-1.5,0.3-2.1,1c-0.5,0.7-0.8,1.7-0.8,3
		c0,1.3,0.3,2.3,0.8,3C128,17.9,128.7,18.3,129.5,18.3z M129.8,12.9c0.2-0.3,0.5-0.5,0.8-0.5c0.5,0,0.8,0.2,1,0.5
		c0.2,0.3,0.3,0.8,0.3,1.4v0.2c0,0.6-0.1,1-0.3,1.2c-0.2,0.3-0.5,0.4-0.9,0.4c-0.3,0-0.6-0.1-0.8-0.4c-0.2-0.3-0.3-0.8-0.3-1.4
		C129.4,13.6,129.5,13.2,129.8,12.9z"/>
	<path class="st0" d="M37,8.6h-1.4v5.9H37c1.1,0,1.9-0.2,2.6-0.7c0.7-0.5,1-1.3,1-2.5c0-0.8-0.3-1.5-0.8-1.9
		C39.2,8.8,38.3,8.6,37,8.6z"/>
	<path class="st0" d="M13,8.9h-2v14.4h1.5c2.1,0,3.7-0.6,4.6-1.8c1-1.2,1.5-3.1,1.5-5.6C18.7,11.2,16.8,8.9,13,8.9z"/>
	<path class="st0" d="M65,14.3c-0.1-0.5-0.3-1.1-0.5-2c-0.2-0.9-0.4-1.7-0.6-2.6c-0.2-0.9-0.4-1.6-0.5-2.2c-0.1,0.6-0.3,1.3-0.5,2.2
		c-0.2,0.9-0.4,1.7-0.6,2.6c-0.2,0.9-0.4,1.6-0.5,2.1l-1.1,4.2h5.5L65,14.3z"/>
	<path class="st0" d="M103.8,21.2V0H0v32.3h41.7v31.2h121.7V21.2H103.8z M79.1,9.1c1-2,2.5-3.5,4.6-4.6c2-1.1,4.5-1.6,7.4-1.6
		c1.6,0,3.1,0.2,4.6,0.5c1.4,0.3,2.7,0.7,3.7,1.2L97.2,10c-0.9-0.5-1.9-0.8-2.9-1c-1-0.2-2.1-0.3-3.2-0.3c-1.5,0-2.8,0.3-3.7,1
		c-0.9,0.7-1.6,1.6-2,2.8s-0.6,2.4-0.6,3.8c0,2.4,0.5,4.2,1.5,5.5c1,1.3,2.4,1.9,4.3,1.9c0.4,0,0.9,0,1.5-0.1c0.6-0.1,1-0.1,1.3-0.2
		v-4h-4.6V14h11.1v13.9c-1.3,0.5-2.9,0.8-4.6,1.1c-1.7,0.3-3.5,0.4-5.4,0.4c-2.5,0-4.6-0.5-6.5-1.4c-1.9-1-3.3-2.4-4.4-4.4
		c-1-2-1.6-4.5-1.6-7.5C77.6,13.4,78.1,11.1,79.1,9.1z M89.7,38.6c0,1.2-0.3,2-1,2.5c-0.7,0.5-1.6,0.7-2.6,0.7h-1.3v-5.9h1.4
		c1.2,0,2.2,0.2,2.7,0.7C89.4,37.1,89.7,37.8,89.7,38.6z M24.2,23.1c-1.1,2-2.7,3.5-4.7,4.5c-2,1-4.4,1.5-7.1,1.5H4.1V3.3H13
		c4.1,0,7.3,1.1,9.6,3.2c2.2,2.1,3.4,5.2,3.4,9.1C25.9,18.6,25.3,21.1,24.2,23.1z M37.4,19.6h-1.8V29h-6.9V3.3h8.4
		c7,0,10.5,2.5,10.5,7.6c0,1.6-0.4,2.9-1.2,4.1c-0.8,1.2-1.8,2.1-3.2,2.8l7.2,10.8l8.2-25.4h9.3L76.4,29h-7.6l-1.3-4.8h-8.4L57.9,29
		h-7.2h-0.4h-7.5L37.4,19.6z M67.8,43.2c0,2.5-0.5,4.4-1.5,5.6c-1,1.2-2.5,1.8-4.6,1.8h-1.5V36.3h2C65.9,36.3,67.8,38.6,67.8,43.2z
		 M160.4,60.5H44.7V32.3h8.5v24.1h8.3c2.7,0,5.1-0.5,7.1-1.5c2-1,3.6-2.5,4.7-4.5c1.1-2,1.7-4.5,1.7-7.5c0-4-1.1-7-3.4-9.1
		c-0.7-0.6-1.4-1.1-2.2-1.6h8.4v24.1h6.9V47h1.8l5.4,9.4h7.9l-7.5-11.2c1.3-0.7,2.4-1.7,3.2-2.8c0.8-1.2,1.2-2.5,1.2-4.1
		c0-2.7-1-4.7-3.1-6h10.2v-8.1h56.6V60.5z"/>
</g>
</svg>
